<?xml version="1.0" encoding="utf-8"?>
<!-- Generator: Adobe Illustrator 24.3.0, SVG Export Plug-In . SVG Version: 6.00 Build 0)  -->
<svg version="1.1" id="Layer_1" xmlns="http://www.w3.org/2000/svg" xmlns:xlink="http://www.w3.org/1999/xlink" x="0px" y="0px"
	 viewBox="0 0 425 365" style="enable-background:new 0 0 425 365;" xml:space="preserve">
<style type="text/css">
    @import url('https://fonts.googleapis.com/css?family=Merriweather:100,300,400,500,600,700|Roboto:100,300,400,500,600,700');
	.st0{fill:#aaa;}
	.st1{font-family:'Roboto';font-weight:300;font-style:italic}
	.st2{font-size:14px;}
	.st3{fill:none;stroke:#C4C4C4;stroke-width:0.5;stroke-miterlimit:10;}
	.st4{fill:#CCCCCC;}
	.st5{fill:#75D2E1;}
	.st6{fill:#13A6C5;}
	.st7{font-family:'Roboto';font-weight:100;}
	.st8{font-size:15px;}
	.st9{font-family:'Roboto';font-weight:500;}
</style>
<text transform="matrix(1 0 0 1 39.31885 319.21924)" class="st0 st1 st2">0</text>
<text transform="matrix(1 0 0 1 22.82477 233.42535)" class="st0 st1 st2">200</text>
<text transform="matrix(1 0 0 1 22.82477 147.63135)" class="st0 st1 st2">400</text>
<text transform="matrix(1 0 0 1 10.00009 61.83746)" class="st0 st1 st2">600m</text>
<g>
	<line class="st3" x1="52.38134" y1="315.11267" x2="68.38134" y2="315.11267"/>
	<line class="st3" x1="52.38134" y1="272.21265" x2="68.38134" y2="272.21265"/>
	<line class="st3" x1="52.38134" y1="229.31264" x2="68.38134" y2="229.31264"/>
	<line class="st3" x1="52.38134" y1="186.41264" x2="68.38134" y2="186.41264"/>
	<line class="st3" x1="52.38134" y1="143.51265" x2="68.38134" y2="143.51265"/>
	<line class="st3" x1="52.38134" y1="100.61265" x2="68.38134" y2="100.61265"/>
	<line class="st3" x1="52.38134" y1="57.71265" x2="68.38134" y2="57.71265"/>
</g>
<rect x="408.60989" y="167.11264" class="st4" width="6.39011" height="148.00003"/>
<rect x="398.66971" y="171.41264" class="st5" width="6.39011" height="143.70003"/>
<rect x="388.61121" y="171.41264" class="st5" width="6.39011" height="143.70003"/>
<rect x="368.61255" y="87.71265" class="st5" width="6.39011" height="227.40002"/>
<rect x="358.67236" y="116.91265" class="st4" width="6.39011" height="198.20001"/>
<rect x="348.61386" y="122.11265" class="st5" width="6.39011" height="193.00003"/>
<rect x="338.67371" y="124.01266" class="st4" width="6.39011" height="191.10001"/>
<rect x="328.6152" y="127.21265" class="st5" width="6.39011" height="187.90002"/>
<rect x="318.67505" y="138.51265" class="st4" width="6.39011" height="176.60002"/>
<rect x="308.61655" y="149.01265" class="st4" width="6.39011" height="166.10002"/>
<rect x="298.67636" y="156.31264" class="st5" width="6.39011" height="158.80003"/>
<rect x="288.61786" y="157.21265" class="st5" width="6.39011" height="157.90002"/>
<rect x="278.67767" y="163.01265" class="st5" width="6.39011" height="152.10002"/>
<rect x="268.61917" y="163.01265" class="st5" width="6.39011" height="152.10002"/>
<rect x="258.67902" y="165.41264" class="st5" width="6.39011" height="149.70003"/>
<rect x="248.62053" y="166.21265" class="st5" width="6.39011" height="148.90002"/>
<rect x="238.68036" y="169.61264" class="st4" width="6.39011" height="145.50003"/>
<rect x="228.62186" y="172.21265" class="st4" width="6.39011" height="142.90002"/>
<rect x="218.68169" y="172.81264" class="st4" width="6.39011" height="142.30003"/>
<rect x="208.62318" y="174.41264" class="st5" width="6.39011" height="140.70003"/>
<rect x="188.62451" y="117.21265" class="st4" width="6.39011" height="197.79999"/>
<rect x="178.68434" y="121.21265" class="st5" width="6.39011" height="193.90002"/>
<rect x="168.62584" y="146.71265" class="st6" width="6.39011" height="168.40002"/>
<rect x="158.68567" y="151.51265" class="st5" width="6.39011" height="163.60002"/>
<rect x="148.62717" y="161.11264" class="st6" width="6.39011" height="154.00003"/>
<rect x="138.68701" y="168.21265" class="st4" width="6.39011" height="146.90002"/>
<rect x="128.62851" y="168.61264" class="st5" width="6.39011" height="146.50003"/>
<rect x="118.68833" y="169.61264" class="st4" width="6.3901" height="145.50003"/>
<rect x="108.62983" y="170.11264" class="st6" width="6.39011" height="145.00003"/>
<rect x="98.68967" y="171.31264" class="st4" width="6.39011" height="143.7"/>
<rect x="88.63116" y="174.01265" class="st4" width="6.39011" height="141.10002"/>
<g>
	<text transform="matrix(1 0 0 1 80.38608 333.39355)" class="st7 st2">2018</text>
</g>
<g>
	<text transform="matrix(1 0 0 1 200.37802 333.39355)" class="st7 st2">2019</text>
</g>
<g>
	<text transform="matrix(1 0 0 1 380.24802 333.39355)" class="st7 st2">2020</text>
</g>
<rect x="10" y="5.41265" class="st6" width="12.9" height="12.9"/>
<text transform="matrix(1 0 0 1 29.13535 16.97656)" class="st7 st8">Shenzhen</text>
<rect x="113.39999" y="5.41265" class="st5" width="12.9" height="12.9"/>
<text transform="matrix(1 0 0 1 132.54485 16.97656)" class="st7 st8">rest of China</text>
<rect x="233.10001" y="5.41265" class="st4" width="12.89999" height="12.9"/>
<text transform="matrix(1 0 0 1 252.25952 16.97656)" class="st7 st8">rest of the world</text>
<text transform="matrix(1 0 0 1 80.38626 357.96326)" class="st9 st2">Shenzhen + the rest of China = 21 buildings</text>
<g>
	<rect x="198.68301" y="88.71265" class="st5" width="6.39011" height="226.40002"/>
	<circle cx="201.87807" cy="312.51266" r="1.5"/>
</g>
<g>
	<rect x="378.67105" y="173.51265" class="st6" width="6.39011" height="141.60002"/>
	<circle cx="381.74777" cy="312.51266" r="1.5"/>
</g>
<g>
	<rect x="78.69099" y="174.71265" class="st6" width="6.39011" height="140.40002"/>
	<circle cx="81.88605" cy="312.51266" r="1.5"/>
</g>
</svg>
