<?xml version="1.0" encoding="utf-8"?>
<!-- Generator: Adobe Illustrator 24.3.0, SVG Export Plug-In . SVG Version: 6.00 Build 0)  -->
<svg version="1.1" id="Layer_1" xmlns="http://www.w3.org/2000/svg" xmlns:xlink="http://www.w3.org/1999/xlink" x="0px" y="0px"
	 viewBox="0 0 520 390" style="enable-background:new 0 0 520 390;" xml:space="preserve">
<style type="text/css">
    @import url('https://fonts.googleapis.com/css?family=Merriweather:100,300,400,500,600,700|Roboto:100,300,400,500,600,700');
	.st0{fill:#aaa;}
	.st1{font-family:'Roboto';font-weight:300;font-style:italic}
	.st2{font-size:15px;}
	.st3{fill:none;stroke:#C4C4C4;stroke-width:0.5;stroke-miterlimit:10;}
	.st4{fill:#CCCCCC;}
	.st5{fill:#75D2E1;}
	.st6{fill:#13A6C5;}
	.st7{font-family:'Roboto';font-weight:100;}
	.st8{font-size:14px;}
	.st9{font-family:'Roboto';font-weight:500;}
</style>
<text transform="matrix(1 0 0 1 29.31885 342.71344)" class="st0 st1 st2">0</text>
<text transform="matrix(1 0 0 1 12.82477 249.37927)" class="st0 st1 st2">200</text>
<text transform="matrix(1 0 0 1 12.82477 156.0462)" class="st0 st1 st2">400</text>
<text transform="matrix(1 0 0 1 0.00009 62.71277)" class="st0 st1 st2">600m</text>
<g>
	<line class="st3" x1="42.38134" y1="337.71265" x2="58.38134" y2="337.71265"/>
	<line class="st3" x1="42.38134" y1="291.04596" x2="58.38134" y2="291.04596"/>
	<line class="st3" x1="42.38134" y1="244.3793" x2="58.38134" y2="244.3793"/>
	<line class="st3" x1="42.38134" y1="197.71265" x2="58.38134" y2="197.71265"/>
	<line class="st3" x1="42.38134" y1="151.04599" x2="58.38134" y2="151.04599"/>
	<line class="st3" x1="42.38134" y1="104.37931" x2="58.38134" y2="104.37931"/>
	<line class="st3" x1="42.38134" y1="57.71265" x2="58.38134" y2="57.71265"/>
</g>
<rect x="511.38846" y="176.71808" class="st4" width="8.61154" height="160.99457"/>
<rect x="497.99268" y="181.39563" class="st5" width="8.61154" height="156.31702"/>
<rect x="484.43744" y="181.39563" class="st5" width="8.61154" height="156.31702"/>
<rect x="457.48645" y="90.34668" class="st5" width="8.61154" height="247.36597"/>
<rect x="444.09073" y="122.11047" class="st4" width="8.61154" height="215.60217"/>
<rect x="430.53549" y="127.76703" class="st5" width="8.61154" height="209.94562"/>
<rect x="417.13974" y="129.83386" class="st4" width="8.61154" height="207.87878"/>
<rect x="403.58453" y="133.31482" class="st5" width="8.61154" height="204.39783"/>
<rect x="390.18878" y="145.60698" class="st4" width="8.61154" height="192.10567"/>
<rect x="376.63354" y="157.02888" class="st4" width="8.61154" height="180.68376"/>
<rect x="363.23776" y="164.96982" class="st5" width="8.61154" height="172.74283"/>
<rect x="349.68253" y="165.94885" class="st5" width="8.61154" height="171.76379"/>
<rect x="336.28677" y="172.2581" class="st5" width="8.61154" height="165.45454"/>
<rect x="322.73157" y="172.2581" class="st5" width="8.61154" height="165.45454"/>
<rect x="309.33582" y="174.86882" class="st5" width="8.61154" height="162.84383"/>
<rect x="295.78058" y="175.73906" class="st5" width="8.61154" height="161.97359"/>
<rect x="282.38486" y="179.43758" class="st4" width="8.61154" height="158.27507"/>
<rect x="268.82962" y="182.26587" class="st4" width="8.61154" height="155.44678"/>
<rect x="255.43385" y="182.91855" class="st4" width="8.61156" height="154.7941"/>
<rect x="241.87863" y="184.65903" class="st5" width="8.61156" height="153.05362"/>
<rect x="214.92766" y="122.43681" class="st4" width="8.61156" height="215.16707"/>
<rect x="201.53189" y="126.78802" class="st5" width="8.61156" height="210.92462"/>
<rect x="187.97665" y="154.52695" class="st6" width="8.61156" height="183.1857"/>
<rect x="174.58092" y="159.7484" class="st5" width="8.61156" height="177.96425"/>
<rect x="161.02568" y="170.19127" class="st6" width="8.61156" height="167.52138"/>
<rect x="147.62994" y="177.91467" class="st4" width="8.61156" height="159.79797"/>
<rect x="134.07472" y="178.34978" class="st5" width="8.61156" height="159.36287"/>
<rect x="120.67895" y="179.43758" class="st4" width="8.61155" height="158.27507"/>
<rect x="107.12373" y="179.98148" class="st6" width="8.61156" height="157.73117"/>
<rect x="93.72798" y="181.28683" class="st4" width="8.61156" height="156.31699"/>
<rect x="80.17275" y="184.22392" class="st4" width="8.61156" height="153.48872"/>
<g>
	<text transform="matrix(1 0 0 1 69.08262 356.18292)" class="st7 st8">2018</text>
</g>
<g>
	<text transform="matrix(1 0 0 1 230.78885 356.18292)" class="st7 st8">2019</text>
</g>
<g>
	<text transform="matrix(1 0 0 1 473.18805 356.18292)" class="st7 st8">2020</text>
</g>
<rect y="5.41265" class="st6" width="12.9" height="12.9"/>
<text transform="matrix(1 0 0 1 17.48729 16.97656)" class="st7 st2">Shenzhen</text>
<rect x="103.39999" y="5.41265" class="st5" width="12.9" height="12.9"/>
<text transform="matrix(1 0 0 1 120.56422 16.97656)" class="st7 st2">rest of China</text>
<rect x="223.10001" y="5.41265" class="st4" width="12.89999" height="12.9"/>
<text transform="matrix(1 0 0 1 240.2789 16.97656)" class="st7 st2">rest of the world</text>
<text transform="matrix(1 0 0 1 69.08255 380.75259)" class="st9 st8">Shenzhen + the rest of China = 21 buildings</text>
<g>
	<rect x="228.48288" y="91.43449" class="st5" width="8.61156" height="246.27817"/>
	<circle cx="232.78865" cy="334.51605" r="2"/>
</g>
<g>
	<rect x="471.04169" y="183.68001" class="st6" width="8.61154" height="154.03264"/>
	<circle cx="475.18802" cy="334.51605" r="2"/>
</g>
<g>
	<rect x="66.77699" y="184.98537" class="st6" width="8.61156" height="152.72728"/>
	<circle cx="71.08277" cy="334.51605" r="2"/>
</g>
</svg>
