<?xml version="1.0" encoding="utf-8"?>
<!-- Generator: Adobe Illustrator 24.3.0, SVG Export Plug-In . SVG Version: 6.00 Build 0)  -->
<svg version="1.1" id="Layer_1" xmlns="http://www.w3.org/2000/svg" xmlns:xlink="http://www.w3.org/1999/xlink" x="0px" y="0px"
	 viewBox="0 0 425 380" style="enable-background:new 0 0 425 380;" xml:space="preserve">
<style type="text/css">
    @import url('https://fonts.googleapis.com/css?family=Merriweather:100,300,400,500,600,700|Roboto:100,300,400,500,600,700');
	.st0{fill:#aaaaaa;}
	.st1{font-family:'Roboto';font-weight:300;font-style:italic;}
	.st2{font-size:15px;}
	.st3{fill:#aaaaaa;}
	.st4{font-family:'Roboto';font-weight:100;}
	.st5{font-size:14px;}
	.st6{fill:#C13B2E;}
	.st7{font-family:'Roboto';font-weight:600;}
	.st8{fill:#00BFE5;}
	.st9{fill:none;stroke:#00BFE5;stroke-width:2;stroke-miterlimit:10;}
	.st10{fill:none;stroke:#C13B2E;stroke-width:2;stroke-miterlimit:10;}
	.st11{fill:none;stroke:#CCCCCC;stroke-width:0.5;stroke-miterlimit:10;}
	.st12{fill:none;stroke:#000000;stroke-width:0.5;stroke-miterlimit:10;stroke-dasharray:4;}
</style>
<g>
	<text transform="matrix(1 0 0 0.99999 58.41673 372.05399)" class="st0 st1 st2">0</text>
</g>
<g>
	<text transform="matrix(1 0 0 0.99999 151.35492 372.05432)" class="st0 st1 st2">50</text>
</g>
<g>
	<text transform="matrix(1 0 0 0.99999 244.29306 372.05396)" class="st0 st1 st2">100</text>
</g>
<g>
	<text transform="matrix(1 0 0 0.99999 341.35446 372.05402)" class="st0 st1 st2">150</text>
</g>
<g>
	<text transform="matrix(1 0 0 0.99999 390.2276 372.05392)" class="st0 st1 st2">175</text>
</g>
<text transform="matrix(1 0 0 1 117.28413 276.14496)" class="st3 st4 st5">2019</text>
<text transform="matrix(1 0 0 1 117.28413 295.1449)" class="st6 st7 st5">53.2b</text>
<text transform="matrix(1 0 0 1 117.28413 314.14484)" class="st8 st7 st5">7.8b</text>
<text transform="matrix(1 0 0 1 10.00003 17.86542)" class="st4 st2">FDI (US$ billion)</text>
<g>
	<text transform="matrix(1 0 0 1 10.00008 62.28296)" class="st4 st5">1980</text>
</g>
<g>
	<text transform="matrix(1 0 0 1 9.99986 135.45059)" class="st4 st5">1990</text>
</g>
<g>
	<text transform="matrix(1 0 0 1 10.00014 208.61789)" class="st4 st5">2000</text>
</g>
<g>
	<text transform="matrix(1 0 0 1 9.99986 281.78561)" class="st4 st5">2010</text>
</g>
<g>
	<text transform="matrix(1 0 0 1 9.99995 347.63675)" class="st4 st5">2019</text>
</g>
<line class="st9" x1="181.8577" y1="12.90613" x2="210.26321" y2="12.90613"/>
<line class="st10" x1="306.22809" y1="12.93159" x2="334.63354" y2="12.93159"/>
<text transform="matrix(1 0 0 1 217.25931 17.77478)" class="st4 st2">Shenzhen</text>
<text transform="matrix(0.99999 0 0 1 341.55292 17.76208)" class="st4 st2">Hong Kong</text>
<g>
	<g>
		<line class="st11" x1="54.54031" y1="49.96605" x2="62.54029" y2="49.96605"/>
		<line class="st11" x1="46.54032" y1="57.28281" x2="62.54029" y2="57.28281"/>
		<line class="st11" x1="54.54031" y1="64.59956" x2="62.54029" y2="64.59956"/>
		<line class="st11" x1="54.54031" y1="71.91632" x2="62.54029" y2="71.91632"/>
		<line class="st11" x1="54.54031" y1="79.23308" x2="62.54029" y2="79.23308"/>
		<line class="st11" x1="54.54031" y1="86.54983" x2="62.54029" y2="86.54983"/>
		<line class="st11" x1="54.54031" y1="93.86658" x2="62.54029" y2="93.86658"/>
		<line class="st11" x1="54.54031" y1="101.18334" x2="62.54029" y2="101.18334"/>
		<line class="st11" x1="54.54031" y1="108.50009" x2="62.54029" y2="108.50009"/>
		<line class="st11" x1="54.54031" y1="115.81684" x2="62.54029" y2="115.81684"/>
		<line class="st11" x1="54.54031" y1="123.1336" x2="62.54029" y2="123.1336"/>
		<line class="st11" x1="46.54032" y1="130.45035" x2="62.54029" y2="130.45035"/>
		<line class="st11" x1="54.54031" y1="137.76711" x2="62.54029" y2="137.76711"/>
		<line class="st11" x1="54.54031" y1="145.08386" x2="62.54029" y2="145.08386"/>
		<line class="st11" x1="54.54031" y1="152.40062" x2="62.54029" y2="152.40062"/>
		<line class="st11" x1="54.54031" y1="159.71738" x2="62.54029" y2="159.71738"/>
		<line class="st11" x1="54.54031" y1="167.03413" x2="62.54029" y2="167.03413"/>
		<line class="st11" x1="54.54031" y1="174.35089" x2="62.54029" y2="174.35089"/>
		<line class="st11" x1="54.54031" y1="181.66765" x2="62.54029" y2="181.66765"/>
		<line class="st11" x1="54.54031" y1="188.98439" x2="62.54029" y2="188.98439"/>
		<line class="st11" x1="54.54031" y1="196.30115" x2="62.54029" y2="196.30115"/>
		<line class="st11" x1="46.54032" y1="203.6179" x2="62.54029" y2="203.6179"/>
		<line class="st11" x1="54.54031" y1="210.93466" x2="62.54029" y2="210.93466"/>
		<line class="st11" x1="54.54031" y1="218.2514" x2="62.54029" y2="218.2514"/>
		<line class="st11" x1="54.54031" y1="225.56818" x2="62.54029" y2="225.56818"/>
		<line class="st11" x1="54.54031" y1="232.88492" x2="62.54029" y2="232.88492"/>
		<line class="st11" x1="54.54031" y1="240.20169" x2="62.54029" y2="240.20169"/>
		<line class="st11" x1="54.54031" y1="247.51843" x2="62.54029" y2="247.51843"/>
		<line class="st11" x1="54.54031" y1="254.83519" x2="62.54029" y2="254.83519"/>
		<line class="st11" x1="54.54031" y1="262.15195" x2="62.54029" y2="262.15195"/>
		<line class="st11" x1="54.54031" y1="269.46869" x2="62.54029" y2="269.46869"/>
		<line class="st11" x1="46.54032" y1="276.78543" x2="62.54029" y2="276.78543"/>
		<line class="st11" x1="54.54031" y1="284.1022" x2="62.54029" y2="284.1022"/>
		<line class="st11" x1="54.54031" y1="291.41895" x2="62.54029" y2="291.41895"/>
		<line class="st11" x1="54.54031" y1="298.73572" x2="62.54029" y2="298.73572"/>
		<line class="st11" x1="54.54031" y1="306.05246" x2="62.54029" y2="306.05246"/>
		<line class="st11" x1="54.54031" y1="313.36923" x2="62.54029" y2="313.36923"/>
		<line class="st11" x1="54.54031" y1="320.68597" x2="62.54029" y2="320.68597"/>
		<line class="st11" x1="54.54031" y1="328.00272" x2="62.54029" y2="328.00272"/>
		<line class="st11" x1="54.54031" y1="335.31949" x2="62.54029" y2="335.31949"/>
		<line class="st11" x1="46.54029" y1="342.63626" x2="62.54026" y2="342.63626"/>
	</g>
	<line class="st11" x1="62.54027" y1="35.9091" x2="62.54027" y2="356.07458"/>
	<line class="st11" x1="159.60181" y1="102.36083" x2="159.60181" y2="356.07458"/>
	<line class="st11" x1="256.66333" y1="102.36083" x2="256.66333" y2="356.07458"/>
	<line class="st11" x1="353.72485" y1="35.9091" x2="353.72485" y2="356.07458"/>
	<line class="st11" x1="111.07104" y1="57.28281" x2="111.07104" y2="356.07458"/>
	<line class="st11" x1="208.13255" y1="102.36085" x2="208.13255" y2="356.07458"/>
	<line class="st11" x1="305.19409" y1="35.9091" x2="305.19409" y2="356.07458"/>
	<line class="st11" x1="402.25562" y1="35.9091" x2="402.25562" y2="356.07458"/>
	<polyline class="st9" points="77.70124,346.29507 77.70124,338.9783 78.45832,338.9783 78.45832,331.66153 76.90533,331.66153 
		76.90533,324.34476 75.60471,324.34476 75.60471,317.02798 75.15823,317.02798 75.15823,309.71124 73.79938,309.71124 
		73.79938,302.39447 73.15876,302.39447 73.15876,295.07773 72.69287,295.07773 72.69287,287.76096 71.46989,287.76096 
		71.46989,280.44418 70.88752,280.44418 70.88752,273.12741 70.61575,273.12741 70.61575,265.81064 70.36339,265.81064 
		70.36339,258.4939 69.64514,258.4939 69.64514,251.17714 68.88805,251.17714 68.88805,243.86037 68.30569,243.86037 
		68.30569,236.54361 67.10213,236.54361 67.10213,229.22684 69.56748,229.22684 69.56748,221.91006 68.73276,221.91006 
		68.73276,214.59331 67.56802,214.59331 67.56802,207.27655 66.34504,207.27655 66.34504,199.95978 65.99562,199.95978 
		65.99562,192.64302 65.76268,192.64302 65.76268,185.32626 65.76268,178.00949 66.51975,178.00949 66.51975,170.69273 
		65.08324,170.69273 65.08324,163.37598 64.96677,163.37598 64.96677,156.0592 64.46205,156.0592 64.46205,148.74243 
		63.41378,148.74243 63.41378,141.42567 63.31673,141.42567 63.31673,134.10892 63.29731,134.10892 63.29731,126.79215 
		63.10319,126.79215 63.10319,119.47538 63.10319,112.15862 63.06436,112.15862 63.06436,104.84186 63.23907,104.84186 
		63.23907,97.52509 62.88965,97.52509 62.88965,90.20833 62.90906,90.20833 62.90906,82.89156 62.75377,82.89156 62.75377,75.5748 
		62.65671,75.5748 62.65671,68.25803 62.71494,68.25803 62.71494,60.94127 62.59847,60.94127 62.59847,53.62451 62.55964,53.62451 
		62.55964,46.30775 	"/>
	<polyline class="st10" points="63.80203,46.3077 63.80203,53.62447 63.9185,53.62447 63.9185,60.94123 66.53917,60.94123 
		66.53917,68.258 64.94736,68.258 64.94736,75.57476 64.75323,75.57476 64.75323,82.89152 65.04442,82.89152 65.04442,90.20829 
		62.54021,90.20825 62.54021,97.52502 66.20915,97.52505 66.20915,104.84181 74.67293,104.84181 74.67293,112.15858 
		72.20756,112.15858 72.20756,119.47535 66.50034,119.47535 66.50034,126.7921 68.90746,126.7921 68.90746,134.10887 
		64.52029,134.10887 64.52029,141.42563 70.09162,141.42563 70.09162,148.7424 75.99296,148.7424 75.99296,156.05916 
		77.74007,156.05916 77.74007,163.37593 74.59528,163.37593 74.59528,170.69269 82.8455,170.69269 82.8455,178.00946 
		84.61203,178.00946 84.61203,185.32622 89.60098,185.32622 89.60098,192.64297 111.76984,192.64297 111.76984,199.95975 
		199.39697,199.95975 199.39697,207.2765 123.28134,207.2765 123.28134,214.59328 75.64353,214.59328 75.64353,221.91002 
		98.58888,221.91002 98.58888,229.22679 105.61613,229.22679 105.61613,236.54356 142.05304,236.54356 142.05304,243.86032 
		149.70148,243.86032 149.70148,251.17709 183.12947,251.17709 183.12947,258.49387 192.68033,258.49387 192.68033,265.81064 
		167.91023,265.81064 167.91023,273.12738 223.09941,273.12738 223.09941,280.44412 249.17014,280.44412 249.17014,287.76089 
		207.91898,287.76089 207.91898,295.07767 211.74321,295.07767 211.74321,302.39444 314.60901,302.39444 314.60901,309.71121 
		414,309.71121 414,317.02798 321.22861,317.02798 321.22861,324.34473 306.59174,324.34473 306.59174,331.66147 
		250.91724,331.66147 250.91724,338.97824 165.75545,338.97824 165.75545,346.29501 	"/>
	<line class="st12" x1="65.22115" y1="49.96605" x2="237.49028" y2="49.96605"/>
	<g>
		<path class="st12" d="M62.54021,346.29501h65.2636c4.18021,0,7.6004-3.52582,7.6004-7.83514v-18.43991"/>
	</g>
	<g>
		<path class="st12" d="M165.75545,346.29501h-22.75085c-4.18022,0-7.60039-3.52582-7.60039-7.83514v-18.43991"/>
	</g>
</g>
<text transform="matrix(1 0 0 1 245.73734 54.92297)" class="st3 st4 st5">1979</text>
<text transform="matrix(1 0 0 1 245.73734 73.92291)" class="st6 st7 st5">0.6b</text>
<text transform="matrix(1 0 0 1 245.73734 92.92285)" class="st8 st7 st5">0.0054b</text>
<text transform="matrix(1 0 0 1 172.82071 92.65253)" class="st4 st2">Shenzhen</text>
<text transform="matrix(1 0 0 1 163.79727 73.6524)" class="st4 st2">Hong Kong</text>
</svg>
