<?xml version="1.0" encoding="utf-8"?>
<!-- Generator: Adobe Illustrator 24.3.0, SVG Export Plug-In . SVG Version: 6.00 Build 0)  -->
<svg version="1.1" id="Layer_1" xmlns="http://www.w3.org/2000/svg" xmlns:xlink="http://www.w3.org/1999/xlink" x="0px" y="0px"
	 viewBox="0 0 520 475" style="enable-background:new 0 0 520 475;" xml:space="preserve">
<style type="text/css">
    @import url('https://fonts.googleapis.com/css?family=Merriweather:100,300,400,500,600,700|Roboto:100,300,400,500,600,700');
	.st0{fill:#C4C4C4;}
	.st1{font-family:'Roboto';font-weight:3100;font-style:italic;}
	.st2{font-size:15px;}
	.st3{fill:#aaaaaa;}
	.st4{font-family:'Roboto';font-weight:100;}
	.st5{fill:#C13B2E;}
	.st6{font-family:'Roboto';font-weight:600;}
	.st7{fill:#00BFE5;}
	.st8{font-size:14px;}
	.st9{fill:none;stroke:#CCCCCC;stroke-width:0.5;stroke-miterlimit:10;}
	.st10{fill:none;stroke:#00BFE5;stroke-width:2;stroke-miterlimit:10;}
	.st11{fill:none;stroke:#C13B2E;stroke-width:2;stroke-miterlimit:10;}
	.st12{fill:none;stroke:#000000;stroke-width:0.5;stroke-miterlimit:10;stroke-dasharray:4;}
</style>
<g>
	<text transform="matrix(1 0 0 0.99999 51.51285 461.91812)" class="st0 st1 st2">0</text>
</g>
<g>
	<text transform="matrix(1 0 0 0.99999 175.09418 461.91812)" class="st0 st1 st2">50</text>
</g>
<g>
	<text transform="matrix(1 0 0 0.99999 298.677 461.91788)" class="st0 st1 st2">100</text>
</g>
<g>
	<text transform="matrix(1 0 0 0.99999 426.38239 461.91776)" class="st0 st1 st2">150</text>
</g>
<g>
	<text transform="matrix(1 0 0 0.99999 490.23553 461.91785)" class="st0 st1 st2">175</text>
</g>
<text transform="matrix(1 0 0 1 140.98163 344.30368)" class="st3 st4 st2">2019</text>
<text transform="matrix(1 0 0 1 140.98163 364.30368)" class="st5 st6 st2">53.2b</text>
<text transform="matrix(1 0 0 1 140.98163 384.30368)" class="st7 st6 st2">7.8b</text>
<text transform="matrix(1 0 0 1 0.00003 17.86542)" class="st4 st2">FDI (US$ billion)</text>
<g>
	<text transform="matrix(1 0 0 1 2.21687 69.44611)" class="st4 st8">1980</text>
</g>
<g>
	<text transform="matrix(1 0 0 1 2.21666 161.57269)" class="st4 st8">1990</text>
</g>
<g>
	<text transform="matrix(1 0 0 1 2.21693 254.95673)" class="st4 st8">2000</text>
</g>
<g>
	<text transform="matrix(1 0 0 1 2.21666 348.3407)" class="st4 st8">2010</text>
</g>
<g>
	<text transform="matrix(1 0 0 1 2.21675 432.38617)" class="st4 st8">2019</text>
</g>
<g>
	<line class="st9" x1="46.84774" y1="53.85003" x2="55.63609" y2="53.85003"/>
	<line class="st9" x1="38.05938" y1="63.18843" x2="55.63609" y2="63.18843"/>
	<line class="st9" x1="46.84774" y1="72.52682" x2="55.63609" y2="72.52682"/>
	<line class="st9" x1="46.84774" y1="81.86522" x2="55.63609" y2="81.86522"/>
	<line class="st9" x1="46.84774" y1="91.20361" x2="55.63609" y2="91.20361"/>
	<line class="st9" x1="46.84774" y1="100.54201" x2="55.63609" y2="100.54201"/>
	<line class="st9" x1="46.84774" y1="109.8804" x2="55.63609" y2="109.8804"/>
	<line class="st9" x1="46.84774" y1="119.2188" x2="55.63609" y2="119.2188"/>
	<line class="st9" x1="46.84774" y1="128.55719" x2="55.63609" y2="128.55719"/>
	<line class="st9" x1="46.84774" y1="137.89558" x2="55.63609" y2="137.89558"/>
	<line class="st9" x1="46.84774" y1="147.23398" x2="55.63609" y2="147.23398"/>
	<line class="st9" x1="38.05938" y1="156.57237" x2="55.63609" y2="156.57237"/>
	<line class="st9" x1="46.84774" y1="165.91077" x2="55.63609" y2="165.91077"/>
	<line class="st9" x1="46.84774" y1="175.24916" x2="55.63609" y2="175.24916"/>
	<line class="st9" x1="46.84774" y1="184.58755" x2="55.63609" y2="184.58755"/>
	<line class="st9" x1="46.84774" y1="193.92596" x2="55.63609" y2="193.92596"/>
	<line class="st9" x1="46.84774" y1="203.26436" x2="55.63609" y2="203.26436"/>
	<line class="st9" x1="46.84774" y1="212.60275" x2="55.63609" y2="212.60275"/>
	<line class="st9" x1="46.84774" y1="221.94115" x2="55.63609" y2="221.94115"/>
	<line class="st9" x1="46.84774" y1="231.27954" x2="55.63609" y2="231.27954"/>
	<line class="st9" x1="46.84774" y1="240.61794" x2="55.63609" y2="240.61794"/>
	<line class="st9" x1="38.05938" y1="249.95633" x2="55.63609" y2="249.95633"/>
	<line class="st9" x1="46.84774" y1="259.29474" x2="55.63609" y2="259.29474"/>
	<line class="st9" x1="46.84774" y1="268.63312" x2="55.63609" y2="268.63312"/>
	<line class="st9" x1="46.84774" y1="277.97153" x2="55.63609" y2="277.97153"/>
	<line class="st9" x1="46.84774" y1="287.30991" x2="55.63609" y2="287.30991"/>
	<line class="st9" x1="46.84774" y1="296.64832" x2="55.63609" y2="296.64832"/>
	<line class="st9" x1="46.84774" y1="305.98669" x2="55.63609" y2="305.98669"/>
	<line class="st9" x1="46.84774" y1="315.3251" x2="55.63609" y2="315.3251"/>
	<line class="st9" x1="46.84774" y1="324.66348" x2="55.63609" y2="324.66348"/>
	<line class="st9" x1="46.84774" y1="334.00189" x2="55.63609" y2="334.00189"/>
	<line class="st9" x1="38.05938" y1="343.34027" x2="55.63609" y2="343.34027"/>
	<line class="st9" x1="46.84774" y1="352.67868" x2="55.63609" y2="352.67868"/>
	<line class="st9" x1="46.84774" y1="362.01706" x2="55.63609" y2="362.01706"/>
	<line class="st9" x1="46.84774" y1="371.35547" x2="55.63609" y2="371.35547"/>
	<line class="st9" x1="46.84774" y1="380.69385" x2="55.63609" y2="380.69385"/>
	<line class="st9" x1="46.84774" y1="390.03226" x2="55.63609" y2="390.03226"/>
	<line class="st9" x1="46.84774" y1="399.37064" x2="55.63609" y2="399.37064"/>
	<line class="st9" x1="46.84774" y1="408.70905" x2="55.63609" y2="408.70905"/>
	<line class="st9" x1="46.84774" y1="418.04745" x2="55.63609" y2="418.04745"/>
	<line class="st9" x1="38.05935" y1="427.38586" x2="55.63606" y2="427.38586"/>
</g>
<line class="st9" x1="55.63606" y1="35.9091" x2="55.63606" y2="444.53717"/>
<line class="st9" x1="183.34204" y1="107.84014" x2="183.34204" y2="444.53717"/>
<line class="st9" x1="311.048" y1="35.9091" x2="311.048" y2="444.53717"/>
<line class="st9" x1="438.754" y1="35.9091" x2="438.754" y2="444.53717"/>
<line class="st9" x1="119.48905" y1="63.18843" x2="119.48905" y2="444.53717"/>
<line class="st9" x1="247.19502" y1="107.84014" x2="247.19502" y2="444.53717"/>
<line class="st9" x1="374.901" y1="35.9091" x2="374.901" y2="444.53717"/>
<line class="st9" x1="502.60699" y1="35.9091" x2="502.60699" y2="444.53717"/>
<polyline class="st10" points="75.58368,432.05554 75.58368,422.71713 76.57979,422.71713 76.57979,413.37872 74.53649,413.37872 
	74.53649,404.04031 72.82523,404.04031 72.82523,394.7019 72.23779,394.7019 72.23779,385.36353 70.44991,385.36353 
	70.44991,376.02512 69.60704,376.02512 69.60704,366.68671 68.99406,366.68671 68.99406,357.3483 67.38496,357.3483 
	67.38496,348.00989 66.61872,348.00989 66.61872,338.67148 66.26115,338.67148 66.26115,329.33307 65.92911,329.33307 
	65.92911,319.99469 64.98409,319.99469 64.98409,310.65628 63.98798,310.65628 63.98798,301.31787 63.22174,301.31787 
	63.22174,291.97946 61.63819,291.97946 61.63819,282.64105 64.88192,282.64105 64.88192,273.30264 63.78365,273.30264 
	63.78365,263.96423 62.25118,263.96423 62.25118,254.62584 60.64208,254.62584 60.64208,245.28743 60.18234,245.28743 
	60.18234,235.94902 59.87585,235.94902 59.87585,226.61063 59.87585,217.27222 60.87195,217.27222 60.87195,207.93381 
	58.9819,207.93381 58.9819,198.59541 58.82866,198.59541 58.82866,189.257 58.16459,189.257 58.16459,179.91859 56.78536,179.91859 
	56.78536,170.58018 56.65766,170.58018 56.65766,161.24179 56.63211,161.24179 56.63211,151.90338 56.3767,151.90338 
	56.3767,142.56497 56.3767,133.22656 56.32562,133.22656 56.32562,123.88816 56.55549,123.88816 56.55549,114.54976 
	56.09575,114.54976 56.09575,105.21135 56.12129,105.21135 56.12129,95.87295 55.91696,95.87295 55.91696,86.53454 
	55.78926,86.53454 55.78926,77.19614 55.86588,77.19614 55.86588,67.85773 55.71263,67.85773 55.71263,58.51933 55.66155,58.51933 
	55.66155,49.18092 "/>
<polyline class="st11" points="57.29618,49.18087 57.29618,58.51927 57.44943,58.51927 57.44943,67.85768 60.8975,67.85768 
	60.8975,77.19608 58.80312,77.19608 58.80312,86.53449 58.5477,86.53449 58.5477,95.87289 58.93082,95.87289 58.93082,105.2113 
	55.63598,105.21126 55.63598,114.54966 60.46329,114.54971 60.46329,123.88811 71.59926,123.88811 71.59926,133.22652 
	68.35552,133.22652 68.35552,142.56493 60.84641,142.56493 60.84641,151.90332 64.01352,151.90332 64.01352,161.24173 
	58.24121,161.24173 58.24121,170.58014 65.57153,170.58014 65.57153,179.91855 73.33606,179.91855 73.33606,189.25694 
	75.63477,189.25694 75.63477,198.59535 71.49709,198.59535 71.49709,207.93376 82.3521,207.93376 82.3521,217.27217 
	84.67635,217.27217 84.67635,226.61057 91.24043,226.61057 91.24043,235.94897 120.40848,235.94897 120.40848,245.28738 
	235.70143,245.28738 235.70143,254.62578 135.55441,254.62578 135.55441,263.9642 72.87631,263.9642 72.87631,273.30258 
	103.06601,273.30258 103.06601,282.64099 112.31192,282.64099 112.31192,291.9794 160.25275,291.9794 160.25275,301.31781 
	170.31598,301.31781 170.31598,310.65622 214.29791,310.65622 214.29791,319.99463 226.86418,319.99463 226.86418,329.33304 
	194.27362,329.33304 194.27362,338.67145 266.88724,338.67145 266.88724,348.00983 301.18906,348.00983 301.18906,357.34824 
	246.91402,357.34824 246.91402,366.68665 251.94563,366.68665 251.94563,376.02505 387.28842,376.02505 387.28842,385.36346 
	518.05933,385.36346 518.05933,394.70187 395.99799,394.70187 395.99799,404.04028 376.73993,404.04028 376.73993,413.37866 
	303.48776,413.37866 303.48776,422.71707 191.43854,422.71707 191.43854,432.05548 "/>
<line class="st12" x1="59.16336" y1="53.85003" x2="224.629" y2="53.85003"/>
<g>
	<path class="st12" d="M55.63598,432.05548h85.86875c5.5,0,10-4.5,10-10v-28.64047"/>
</g>
<text transform="matrix(1 0 0 1 228.09622 56.69647)" class="st3 st4 st2">1979</text>
<text transform="matrix(1 0 0 1 228.09622 76.69647)" class="st5 st6 st2">0.6b</text>
<text transform="matrix(1 0 0 1 228.09622 96.69647)" class="st7 st6 st2">0.0054b</text>
<line class="st10" x1="286.8912" y1="12.90613" x2="315.29672" y2="12.90613"/>
<line class="st11" x1="411.2616" y1="12.93159" x2="439.66705" y2="12.93159"/>
<text transform="matrix(1 0 0 1 322.29282 17.77478)" class="st4 st2">Shenzhen</text>
<text transform="matrix(1 0 0 1 156.798 96.21057)" class="st4 st2">Shenzhen</text>
<text transform="matrix(1 0 0 1 147.97232 76.2583)" class="st4 st2">Hong Kong</text>
<text transform="matrix(0.99999 0 0 1 446.58646 17.76208)" class="st4 st2">Hong Kong</text>
<g>
	<path class="st12" d="M191.43854,432.05548h-29.93381c-5.5,0-10-4.5-10-10v-28.64047"/>
</g>
</svg>
