<?xml version="1.0" encoding="utf-8"?>
<!-- Generator: Adobe Illustrator 24.3.0, SVG Export Plug-In . SVG Version: 6.00 Build 0)  -->
<svg version="1.1" id="Layer_1" xmlns="http://www.w3.org/2000/svg" xmlns:xlink="http://www.w3.org/1999/xlink" x="0px" y="0px"
	 viewBox="0 0 425 460" style="enable-background:new 0 0 425 460;" xml:space="preserve">
<style type="text/css">
    @import url('https://fonts.googleapis.com/css?family=Merriweather:100,300,400,500,600,700|Roboto:100,300,400,500,600,700');
	.st0{fill:none;stroke:#CCCCCC;stroke-width:0.5;stroke-miterlimit:10;}
	.st1{fill:#C13B2E;}
	.st2{fill:none;stroke:#C13B2E;stroke-width:3;stroke-miterlimit:10;}
	.st3{fill:none;stroke:#00BFE5;stroke-width:3;stroke-miterlimit:10;}
	.st4{fill:#00BFE5;}
	.st5{fill:none;stroke:#00BFE5;stroke-width:2;stroke-miterlimit:10;}
	.st6{fill:none;stroke:#C13B2E;stroke-width:2;stroke-miterlimit:10;}
	.st7{fill:none;stroke:#000000;stroke-width:0.5;stroke-miterlimit:10;stroke-dasharray:4.39417,4.39417;}
	.st8{fill:none;stroke:#000000;stroke-width:0.5;stroke-miterlimit:10;stroke-dasharray:4.18674,4.18674;}
	.st9{fill:#aaaaaa;}
	.st10{font-family:'Roboto';font-weight:300;font-style:italic;}
	.st11{font-size:14px;}
	.st12{font-family:'Roboto';font-weight:100;}
	.st13{font-family:'Roboto';font-weight:600;}
	.st14{font-size:15px;}
	.st15{fill:none;}
</style>
<line class="st0" x1="110.09464" y1="220.25275" x2="412.62167" y2="220.25275"/>
<line class="st0" x1="272.37704" y1="154.44627" x2="412.62167" y2="154.44627"/>
<line class="st0" x1="354.9418" y1="88.63978" x2="412.62167" y2="88.63978"/>
<line class="st0" x1="354.9418" y1="22.83326" x2="412.62167" y2="22.83329"/>
<circle class="st1" cx="412.6217" cy="45.16544" r="3"/>
<g>
	<line class="st0" x1="12.37818" y1="297.569" x2="12.37818" y2="286.05923"/>
	<line class="st0" x1="32.39035" y1="297.569" x2="32.39035" y2="286.05923"/>
	<line class="st0" x1="22.38416" y1="297.569" x2="22.38416" y2="266.74228"/>
	<line class="st0" x1="42.39644" y1="297.569" x2="42.39644" y2="286.05923"/>
	<line class="st0" x1="52.40253" y1="297.569" x2="52.40253" y2="266.05533"/>
	<line class="st0" x1="62.40862" y1="297.569" x2="62.40862" y2="286.05923"/>
	<line class="st0" x1="72.41471" y1="297.569" x2="72.41471" y2="286.05923"/>
	<line class="st0" x1="82.42079" y1="297.569" x2="82.42079" y2="286.05923"/>
	<line class="st0" x1="92.42688" y1="297.569" x2="92.42688" y2="286.05923"/>
	<line class="st0" x1="102.43298" y1="297.569" x2="102.43298" y2="286.05923"/>
	<line class="st0" x1="112.43906" y1="297.569" x2="112.43906" y2="286.05923"/>
	<line class="st0" x1="122.44515" y1="297.569" x2="122.44515" y2="235.15436"/>
	<line class="st0" x1="132.45123" y1="297.569" x2="132.45123" y2="286.05923"/>
	<line class="st0" x1="142.45732" y1="297.569" x2="142.45732" y2="286.05923"/>
	<line class="st0" x1="152.46341" y1="297.569" x2="152.46341" y2="286.05923"/>
	<line class="st0" x1="162.4695" y1="297.569" x2="162.4695" y2="286.05923"/>
	<line class="st0" x1="172.47559" y1="297.569" x2="172.47559" y2="286.05923"/>
	<line class="st0" x1="182.48167" y1="297.569" x2="182.48167" y2="286.05923"/>
	<line class="st0" x1="202.49387" y1="297.569" x2="202.49387" y2="286.05923"/>
	<line class="st0" x1="212.49995" y1="297.569" x2="212.49995" y2="176.23468"/>
	<line class="st0" x1="222.50604" y1="297.65903" x2="222.50604" y2="286.05923"/>
	<line class="st0" x1="232.51212" y1="297.569" x2="232.51212" y2="286.05923"/>
	<line class="st0" x1="242.51822" y1="297.569" x2="242.51822" y2="286.05923"/>
	<line class="st0" x1="252.52431" y1="297.569" x2="252.52431" y2="286.05923"/>
	<line class="st0" x1="272.5365" y1="297.569" x2="272.5365" y2="286.05923"/>
	<line class="st0" x1="282.54257" y1="297.569" x2="282.54257" y2="286.05923"/>
	<line class="st0" x1="292.54868" y1="297.569" x2="292.54868" y2="286.05923"/>
	<line class="st0" x1="302.55475" y1="297.569" x2="302.55475" y2="286.05923"/>
	<line class="st0" x1="312.56085" y1="297.569" x2="312.56085" y2="286.05923"/>
	<line class="st0" x1="332.573" y1="297.569" x2="332.573" y2="286.05923"/>
	<line class="st0" x1="342.57907" y1="297.569" x2="342.57907" y2="286.05923"/>
	<line class="st0" x1="352.58517" y1="297.569" x2="352.58517" y2="286.05923"/>
	<line class="st0" x1="362.59128" y1="297.569" x2="362.59128" y2="286.05923"/>
	<line class="st0" x1="372.59735" y1="297.569" x2="372.59735" y2="82.39153"/>
	<line class="st0" x1="382.60345" y1="297.569" x2="382.60345" y2="286.05923"/>
	<line class="st0" x1="392.60953" y1="297.569" x2="392.60953" y2="286.05923"/>
	<line class="st0" x1="402.61563" y1="297.569" x2="402.61563" y2="286.05923"/>
	<line class="st0" x1="412.62177" y1="297.65906" x2="412.62173" y2="286.05927"/>
</g>
<polyline class="st2" points="412.62167,45.16542 402.6156,55.03504 392.6095,61.45366 382.60342,74.86428 372.59732,82.39153 
	362.59125,94.17078 352.58514,104.52943 342.57907,113.11701 332.573,122.39351 322.56693,135.45537 312.56082,145.04434 
	302.55475,141.60518 292.54865,146.65375 282.54257,158.52298 272.53647,166.38683 262.5304,174.58194 252.52429,179.65221 
	242.51822,176.38954 232.51212,174.38255 222.50604,172.89406 212.49995,176.77144 202.49387,174.72231 192.48778,169.15831 
	182.48169,180.74791 172.4756,190.64774 162.46951,196.45764 152.46342,206.61633 142.45734,217.18468 132.45125,227.24774 
	122.44517,235.15436 112.43908,240.50237 102.43299,246.47144 92.4269,252.4417 82.42081,258.71573 72.41473,262.24872 
	62.40864,263.68668 52.40255,266.05533 42.39647,264.48849 32.39038,265.30069 22.38429,266.74228 12.3782,270.90598 "/>
<polyline class="st3" points="412.62167,28.4989 402.6156,54.3384 392.6095,70.88189 382.60342,93.90588 372.59732,113.63702 
	362.59125,128.58221 352.58514,142.62404 342.57907,158.47836 332.573,172.92542 322.56693,190.16713 312.56082,204.65184 
	302.55475,209.85197 292.54865,219.55884 282.54257,229.1546 272.53647,237.60719 262.5304,244.15492 252.52429,250.93837 
	242.51822,256.8884 232.51212,261.60995 222.50604,264.51135 212.49995,268.27979 202.49387,270.9519 192.48778,273.26968 
	182.48169,275.6748 172.4756,277.65891 162.46951,279.64694 152.46342,281.38095 142.45734,282.67831 132.45125,283.44879 
	122.44517,284.06964 112.43908,284.60461 102.43299,284.87854 92.4269,285.17545 82.42081,285.31161 72.41473,285.33664 
	62.40864,285.48569 52.40255,285.58408 42.39647,285.63052 32.39038,285.66202 22.38429,285.68356 12.3782,285.69067 "/>
<g>
	<circle class="st4" cx="412.6218" cy="28.49892" r="3"/>
</g>
<circle class="st1" cx="12.3782" cy="270.90598" r="3"/>
<g>
	<circle class="st4" cx="12.3782" cy="285.69067" r="3"/>
</g>
<line class="st5" x1="10" y1="13.97631" x2="38.40552" y2="13.97631"/>
<line class="st6" x1="134.37038" y1="14.00178" x2="162.77585" y2="14.00178"/>
<g>
	<g>
		<line class="st7" x1="52.4025" y1="185.34666" x2="52.4026" y2="253.95856"/>
	</g>
</g>
<g>
	<g>
		<line class="st8" x1="122.44499" y1="324.61148" x2="122.44499" y2="347.50708"/>
	</g>
</g>
<g>
	<g>
		<line class="st8" x1="212.49995" y1="127.14466" x2="212.49995" y2="168.04616"/>
	</g>
</g>
<g>
	<g>
		<line class="st8" x1="372.59735" y1="324.61148" x2="372.59735" y2="347.50708"/>
	</g>
</g>
<g>
	<g>
		<line class="st7" x1="22.38426" y1="324.61148" x2="22.38426" y2="348.24966"/>
	</g>
</g>
<g>
	<g>
		<text transform="matrix(1 0 0 1 83.05933 225.2532)" class="st9 st10 st11">100</text>
	</g>
	<g>
		<text transform="matrix(1 0 0 1 245.52435 158.44666)" class="st9 st10 st11">200</text>
	</g>
	<g>
		<text transform="matrix(1 0 0 1 327.60638 93.78113)" class="st9 st10 st11">300</text>
	</g>
	<g>
		<text transform="matrix(1 0 0 1 327.60611 28.06073)" class="st9 st10 st11">400</text>
	</g>
</g>
<g>
	<text transform="matrix(1 0 0 1 6.86643 315.36917)" class="st12 st11">1980</text>
</g>
<g>
	<text transform="matrix(1 0 0 1 106.92741 315.36917)" class="st12 st11">1990</text>
</g>
<g>
	<text transform="matrix(1 0 0 1 196.98254 315.36917)" class="st12 st11">1999</text>
</g>
<g>
	<text transform="matrix(1 0 0 1 357.07996 315.36917)" class="st12 st11">2015</text>
</g>
<text transform="matrix(1 0 0 1 365.26611 38.06116)" class="st4 st13 st11">391.4</text>
<text transform="matrix(1 0 0 1 10.43375 255.64227)" class="st4 st13 st11">0.28</text>
<text transform="matrix(1 0 0 1 43.30771 18.84497)" class="st12 st14">Shenzhen</text>
<text transform="matrix(0.99999 0 0 1 167.60136 18.83228)" class="st12 st14">Hong Kong</text>
<text transform="matrix(1 0 0 1 365.97937 53.0882)" class="st1 st13 st11">366</text>
<text transform="matrix(1 0 0 1 10.43351 240.40063)" class="st1 st13 st11">22.5</text>
<text transform="matrix(1 0 0 1 10.00003 449.80579)" class="st12 st11">*according to the Chinese Academy of Social Sciences</text>
<rect x="117.92794" y="355.06567" class="st15" width="88.45592" height="65.84312"/>
<text transform="matrix(1 0 0 1 117.92798 365.56549)"><tspan x="0" y="0" class="st12 st11">The Shenzhen </tspan><tspan x="0" y="16" class="st12 st11">Stock </tspan><tspan x="0" y="32" class="st12 st11">Exchange </tspan><tspan x="0" y="48" class="st12 st11">established</tspan></text>
<rect x="176.20987" y="53.45095" class="st15" width="96.62848" height="72.47931"/>
<text transform="matrix(1 0 0 1 176.20988 64.70078)"><tspan x="0" y="0" class="st12 st14">The first China </tspan><tspan x="0" y="18" class="st12 st14">Hi-Tech Fair </tspan><tspan x="0" y="36" class="st12 st14">held in </tspan><tspan x="0" y="54" class="st12 st14">Shenzhen</tspan></text>
<rect x="10" y="111.65295" class="st15" width="107.60233" height="87.44366"/>
<text transform="matrix(1 0 0 1 10.00001 122.90277)"><tspan x="0" y="0" class="st12 st14">First joint-stock </tspan><tspan x="0" y="18" class="st12 st14">enterprise in </tspan><tspan x="0" y="36" class="st12 st14">Shenzhen </tspan><tspan x="0" y="54" class="st12 st14">established</tspan></text>
<rect x="291.29471" y="355.06567" class="st15" width="123.7053" height="65.84312"/>
<text transform="matrix(1 0 0 1 291.29514 365.56549)"><tspan x="0" y="0" class="st12 st11">Shenzhen overtakes </tspan><tspan x="0" y="16" class="st12 st11">Hong Kong as </tspan><tspan x="0" y="32" class="st12 st11">China’s most </tspan><tspan x="0" y="48" class="st12 st11">competitive city*</tspan></text>
<rect x="10" y="355.06567" class="st15" width="96.4369" height="65.84312"/>
<text transform="matrix(1 0 0 1 9.99958 365.56549)"><tspan x="0" y="0" class="st12 st11">Special </tspan><tspan x="0" y="15" class="st12 st11">economic </tspan><tspan x="0" y="30" class="st12 st11">zones </tspan><tspan x="0" y="45" class="st12 st11">established</tspan></text>
</svg>
