<?xml version="1.0" encoding="utf-8"?>
<!-- Generator: Adobe Illustrator 24.3.0, SVG Export Plug-In . SVG Version: 6.00 Build 0)  -->
<svg version="1.1" id="Layer_1" xmlns="http://www.w3.org/2000/svg" xmlns:xlink="http://www.w3.org/1999/xlink" x="0px" y="0px"
	 viewBox="0 0 770 515" style="enable-background:new 0 0 770 515;" xml:space="preserve">
<style type="text/css">
    @import url('https://fonts.googleapis.com/css?family=Merriweather:100,300,400,500,600,700|Roboto:100,300,400,500,600,700');
	.st0{fill:#aaaaaa;}
	.st1{font-family:'Roboto';font-weight:300;font-style:italic;}
	.st2{font-size:15px;}
	.st3{font-family:'Roboto';font-weight:100;}
	.st4{font-size:14px;}
	.st5{fill:#00BFE5;}
	.st6{font-family:'Roboto';font-weight:600;}
	.st7{fill:none;stroke:#00BFE5;stroke-width:2;stroke-miterlimit:10;}
	.st8{fill:none;stroke:#C13B2E;stroke-width:2;stroke-miterlimit:10;}
	.st9{fill:#C13B2E;}
	.st10{fill:none;stroke:#CCCCCC;stroke-width:0.5;stroke-miterlimit:10;}
	.st11{fill:none;stroke:#C13B2E;stroke-width:3;stroke-miterlimit:10;}
	.st12{fill:none;stroke:#00BFE5;stroke-width:3;stroke-miterlimit:10;}
	.st13{fill:none;stroke:#000000;stroke-width:0.5;stroke-miterlimit:10;stroke-dasharray:4.18674,4.18674;}
	.st14{fill:none;stroke:#000000;stroke-width:0.5;stroke-miterlimit:10;stroke-dasharray:4.39417,4.39417;}
</style>
<g>
	<g>
		<text transform="matrix(1 0 0 1 180.68317 267.53906)" class="st0 st1 st2">100</text>
	</g>
	<g>
		<text transform="matrix(1 0 0 1 451.15338 187.39893)" class="st0 st1 st2">200</text>
	</g>
	<g>
		<text transform="matrix(1 0 0 1 588.76178 107.25879)" class="st0 st1 st2">300</text>
	</g>
	<g>
		<text transform="matrix(1 0 0 1 656.77545 27.42773)" class="st0 st1 st2">400</text>
	</g>
</g>
<g>
	<text transform="matrix(1 0 0 1 48.81479 369.3425)" class="st3 st4">1980</text>
</g>
<g>
	<text transform="matrix(1 0 0 1 7.12884 369.3425)" class="st3 st4">1979</text>
</g>
<text transform="matrix(1 0 0 1 215.58304 369.34286)" class="st3 st4">1990</text>
<text transform="matrix(1 0 0 1 365.67404 369.34286)" class="st3 st4">1999</text>
<text transform="matrix(1 0 0 1 549.11963 369.34235)" class="st3 st4">2010</text>
<text transform="matrix(1 0 0 1 632.50348 369.34235)" class="st3 st4">2015</text>
<text transform="matrix(1 0 0 1 699.21075 369.34235)" class="st3 st4">2019</text>
<text transform="matrix(1 0 0 1 723.80353 35.72601)" class="st5 st6 st4">391.4</text>
<text transform="matrix(1 0 0 1 9.99989 349.00229)" class="st5 st6 st4">0.28</text>
<line class="st7" x1="10" y1="230.12173" x2="38.40552" y2="230.12173"/>
<line class="st8" x1="136.017" y1="230.1472" x2="164.42247" y2="230.1472"/>
<text transform="matrix(1 0 0 1 45.40163 234.99042)" class="st3 st2">Shenzhen</text>
<text transform="matrix(0.99999 0 0 1 171.34184 234.97772)" class="st3 st2">Hong Kong</text>
<g>
	<text transform="matrix(1 0 0 0.99999 10.00005 426.30975)" class="st3 st2">Special</text>
	<text transform="matrix(1 0 0 0.99999 10.00005 443.30954)" class="st3 st2">economic zones</text>
	<text transform="matrix(1 0 0 0.99999 9.99985 460.30896)" class="st3 st2">established</text>
</g>
<g>
	<text transform="matrix(1 0 0 0.99999 166.4624 426.30975)" class="st3 st2">The Shenzhen </text>
	<text transform="matrix(1 0 0 0.99999 166.4624 443.30954)" class="st3 st2">Stock Exchange </text>
	<text transform="matrix(1 0 0 0.99999 166.4624 460.30942)" class="st3 st2">established</text>
</g>
<g>
	<text transform="matrix(1 0 0 0.99999 322.25256 426.30975)" class="st3 st2">The first China </text>
	<text transform="matrix(1 0 0 0.99999 322.25256 443.30954)" class="st3 st2">Hi-Tech Fair </text>
	<text transform="matrix(1 0 0 0.99999 322.25256 460.30942)" class="st3 st2">held in Shenzhen</text>
</g>
<g>
	<text transform="matrix(1 0 0 0.99999 480.96017 426.30975)" class="st3 st2">China becomes </text>
	<text transform="matrix(1 0 0 0.99999 480.96017 443.30954)" class="st3 st2">the world&apos;s </text>
	<text transform="matrix(1 0 0 0.99999 480.96017 460.30942)" class="st3 st2">second-biggest </text>
	<text transform="matrix(1 0 0 0.99999 480.96017 477.30923)" class="st3 st2">economy</text>
</g>
<g>
	<text transform="matrix(1 0 0 0.99999 627.76147 426.30975)" class="st3 st2">Shenzhen overtakes</text>
	<text transform="matrix(1 0 0 0.99999 627.76147 443.31052)" class="st3 st2">Hong Kong as </text>
	<text transform="matrix(1 0 0 0.99999 627.76147 460.30936)" class="st3 st2">China’s most</text>
	<text transform="matrix(1 0 0 0.99999 627.76147 477.30917)" class="st3 st2">competitive city*</text>
</g>
<text transform="matrix(1 0 0 1 723.80389 56.94928)" class="st9 st6 st4">366</text>
<text transform="matrix(1 0 0 1 10.00009 327.77979)" class="st9 st6 st4">22.5</text>
<g>
	<line class="st10" x1="210.51636" y1="262.42523" x2="714.72809" y2="262.42523"/>
	<line class="st10" x1="480.98706" y1="182.28494" x2="714.72809" y2="182.28494"/>
	<line class="st10" x1="618.59497" y1="102.14464" x2="714.72809" y2="102.14464"/>
	<line class="st10" x1="686.60803" y1="22.00434" x2="714.72809" y2="22.00434"/>
	<circle class="st9" cx="714.72815" cy="49.20082" r="3.96367"/>
	<g>
		<line class="st10" x1="47.65559" y1="350.49286" x2="47.65559" y2="342.56552"/>
		<line class="st10" x1="81.00922" y1="350.49286" x2="81.00922" y2="342.56552"/>
		<line class="st10" x1="64.33223" y1="350.49286" x2="64.33223" y2="319.04099"/>
		<line class="st10" x1="97.68603" y1="350.49286" x2="97.68603" y2="342.56552"/>
		<line class="st10" x1="114.36285" y1="350.49286" x2="114.36285" y2="342.56552"/>
		<line class="st10" x1="131.03966" y1="350.49286" x2="131.03966" y2="342.56552"/>
		<line class="st10" x1="147.71648" y1="350.49286" x2="147.71648" y2="342.56552"/>
		<line class="st10" x1="164.3933" y1="350.49286" x2="164.3933" y2="342.56552"/>
		<line class="st10" x1="181.0701" y1="350.49286" x2="181.0701" y2="342.56552"/>
		<line class="st10" x1="197.74692" y1="350.49286" x2="197.74692" y2="342.56552"/>
		<line class="st10" x1="214.42374" y1="350.49286" x2="214.42374" y2="342.56552"/>
		<line class="st10" x1="231.10056" y1="350.49286" x2="231.10056" y2="280.57266"/>
		<line class="st10" x1="247.77736" y1="350.49286" x2="247.77736" y2="342.56552"/>
		<line class="st10" x1="264.45416" y1="350.49286" x2="264.45416" y2="342.56552"/>
		<line class="st10" x1="281.13098" y1="350.49286" x2="281.13098" y2="342.56552"/>
		<line class="st10" x1="297.8078" y1="350.49286" x2="297.8078" y2="342.56552"/>
		<line class="st10" x1="314.48462" y1="350.49286" x2="314.48462" y2="342.56552"/>
		<line class="st10" x1="331.16141" y1="350.49286" x2="331.16141" y2="342.56552"/>
		<line class="st10" x1="347.36353" y1="350.49286" x2="347.36353" y2="342.56552"/>
		<line class="st10" x1="364.51508" y1="350.49286" x2="364.51508" y2="342.56552"/>
		<line class="st10" x1="381.19189" y1="350.49286" x2="381.19189" y2="208.81923"/>
		<line class="st10" x1="397.86868" y1="350.60248" x2="397.86868" y2="342.56552"/>
		<line class="st10" x1="414.54547" y1="350.49286" x2="414.54547" y2="342.56552"/>
		<line class="st10" x1="431.22232" y1="350.49286" x2="431.22232" y2="342.56552"/>
		<line class="st10" x1="447.89914" y1="350.49286" x2="447.89914" y2="342.56552"/>
		<line class="st10" x1="464.57593" y1="350.49286" x2="464.57593" y2="342.56552"/>
		<line class="st10" x1="481.25278" y1="350.49286" x2="481.25278" y2="342.56552"/>
		<line class="st10" x1="497.92957" y1="350.49286" x2="497.92957" y2="342.56552"/>
		<line class="st10" x1="514.60638" y1="350.49286" x2="514.60638" y2="342.56552"/>
		<line class="st10" x1="531.2832" y1="350.49286" x2="531.2832" y2="342.56552"/>
		<line class="st10" x1="547.96002" y1="350.49286" x2="547.96002" y2="342.56552"/>
		<line class="st10" x1="564.63684" y1="350.60248" x2="564.63684" y2="159.15749"/>
		<line class="st10" x1="581.31366" y1="350.49286" x2="581.31366" y2="342.56552"/>
		<line class="st10" x1="597.99042" y1="350.49286" x2="597.99042" y2="342.56552"/>
		<line class="st10" x1="614.6673" y1="350.49286" x2="614.6673" y2="342.56552"/>
		<line class="st10" x1="631.34412" y1="350.49286" x2="631.34412" y2="342.56552"/>
		<line class="st10" x1="648.02087" y1="350.49286" x2="648.02087" y2="94.5354"/>
		<line class="st10" x1="664.69775" y1="350.49286" x2="664.69775" y2="342.56552"/>
		<line class="st10" x1="681.37451" y1="350.49286" x2="681.37451" y2="342.56552"/>
		<line class="st10" x1="698.05133" y1="350.49286" x2="698.05133" y2="342.56552"/>
		<line class="st10" x1="714.72821" y1="350.60251" x2="714.72821" y2="342.56555"/>
	</g>
	<polyline class="st11" points="714.72809,49.20079 698.05133,61.2202 681.37445,69.03691 664.69769,85.3686 648.02087,94.5354 
		631.34406,108.88039 614.66724,121.49535 597.99042,131.95345 581.3136,143.25053 564.63684,159.15749 547.95996,170.83511 
		531.2832,166.64684 514.60632,172.79507 497.92957,187.24963 481.25272,196.82635 464.57593,206.80652 447.89911,212.98116 
		431.22232,209.00784 414.54547,206.56371 397.86868,204.75099 381.19189,209.47292 364.51508,206.97746 347.83826,200.20152 
		331.16144,214.31554 314.48462,226.37172 297.80783,233.44713 281.13101,245.81854 264.45419,258.68887 247.77739,270.94385 
		231.10057,280.57266 214.42377,287.08554 197.74695,294.3548 181.07013,301.62549 164.39333,309.26608 147.71651,313.56866 
		131.0397,315.31982 114.36289,318.20441 97.68607,316.2963 81.00925,317.2854 64.33244,319.04099 47.65563,324.1116 	"/>
	<polyline class="st12" points="714.72809,28.90403 698.05133,60.37182 681.37445,80.51878 664.69769,108.55779 
		648.02087,132.58673 631.34406,150.78725 614.66724,167.88763 597.99042,187.1953 581.3136,204.78917 564.63684,225.78642 
		547.95996,243.42616 531.2832,249.75897 514.60632,261.58017 497.92957,273.26605 481.25272,283.55975 464.57593,291.53369 
		447.89911,299.79471 431.22232,307.04074 414.54547,312.79074 397.86868,316.32413 381.19189,320.91339 364.51508,324.16754 
		347.83826,326.99017 331.16144,329.91916 314.48462,332.33545 297.80783,334.7565 281.13101,336.86823 264.45419,338.44818 
		247.77739,339.38647 231.10057,340.14255 214.42377,340.79407 197.74695,341.12762 181.07013,341.4892 164.39333,341.65506 
		147.71651,341.68555 131.0397,341.86703 114.36289,341.98685 97.68607,342.04343 81.00925,342.08179 64.33244,342.10803 
		47.65563,342.11667 	"/>
	<g>
		<circle class="st5" cx="714.72827" cy="28.90405" r="3.96367"/>
	</g>
	<circle class="st9" cx="47.65563" cy="324.1116" r="3.96367"/>
	<g>
		<circle class="st5" cx="47.65563" cy="342.11667" r="3.96367"/>
	</g>
	<g>
		<g>
			<line class="st13" x1="231.10028" y1="376.48596" x2="231.10028" y2="402.48596"/>
		</g>
	</g>
	<g>
		<g>
			<line class="st13" x1="381.19189" y1="376.48596" x2="381.19189" y2="401.8754"/>
		</g>
	</g>
	<g>
		<g>
			<line class="st13" x1="564.6366" y1="376.48596" x2="564.6366" y2="401.8754"/>
		</g>
	</g>
	<g>
		<g>
			<line class="st13" x1="648.02087" y1="376.48596" x2="648.02087" y2="401.8754"/>
		</g>
	</g>
	<g>
		<g>
			<line class="st14" x1="64.3324" y1="376.48596" x2="64.3324" y2="402.48596"/>
		</g>
	</g>
</g>
<text transform="matrix(1 0 0 1 10.00024 501.02682)" class="st3 st4">*according to the Chinese Academy of Social Sciences</text>
</svg>
