<?xml version="1.0" encoding="utf-8"?>
<!-- Generator: Adobe Illustrator 24.3.0, SVG Export Plug-In . SVG Version: 6.00 Build 0)  -->
<svg version="1.1" id="Layer_1" xmlns="http://www.w3.org/2000/svg" xmlns:xlink="http://www.w3.org/1999/xlink" x="0px" y="0px"
	 viewBox="0 0 960 624.00214" style="enable-background:new 0 0 960 624.00214;" xml:space="preserve">
<style type="text/css">
    @import url('https://fonts.googleapis.com/css?family=Merriweather:100,300,400,500,600,700|Roboto:100,300,400,500,600,700');
	.st0{fill:#aaaaaa;}
	.st1{font-family:'Roboto';font-weight:300;font-style:italic;}
	.st2{font-size:15px;}
	.st3{fill:none;stroke:#CCCCCC;stroke-width:0.5;stroke-miterlimit:10;}
	.st4{fill:#C13B2E;}
	.st5{fill:none;stroke:#C13B2E;stroke-width:3;stroke-miterlimit:10;}
	.st6{fill:none;stroke:#00BFE5;stroke-width:3;stroke-miterlimit:10;}
	.st7{fill:#00BFE5;}
	.st8{font-family:'Roboto';font-weight:100;}
	.st9{font-size:14px;}
	.st10{font-family:'Roboto';font-weight:600;}
	.st11{fill:none;stroke:#00BFE5;stroke-width:2;stroke-miterlimit:10;}
	.st12{fill:none;stroke:#C13B2E;stroke-width:2;stroke-miterlimit:10;}
	.st13{fill:none;stroke:#000000;stroke-width:0.5;stroke-miterlimit:10;stroke-dasharray:4.39417,4.39417;}
	.st14{fill:none;stroke:#000000;stroke-width:0.5;stroke-miterlimit:10;stroke-dasharray:4.18674,4.18674;}
	.st15{fill:none;}
</style>
<g>
	<g>
		<text transform="matrix(1 0 0 1 236.99399 330.11389)" class="st0 st1 st2">100</text>
	</g>
	<g>
		<text transform="matrix(1 0 0 1 578.18109 229.01996)" class="st0 st1 st2">200</text>
	</g>
	<g>
		<text transform="matrix(1 0 0 1 751.76752 127.92627)" class="st0 st1 st2">300</text>
	</g>
	<g>
		<text transform="matrix(1 0 0 1 837.56311 26.8327)" class="st0 st1 st2">400</text>
	</g>
</g>
<line class="st3" x1="266.74698" y1="325.1138" x2="902.78833" y2="325.1138"/>
<line class="st3" x1="607.93408" y1="224.02029" x2="902.78833" y2="224.02029"/>
<line class="st3" x1="781.52051" y1="122.92676" x2="902.78833" y2="122.92676"/>
<line class="st3" x1="867.3161" y1="21.83323" x2="902.78833" y2="21.83323"/>
<circle class="st4" cx="902.78839" cy="56.14041" r="5"/>
<g>
	<line class="st3" x1="61.30514" y1="436.20731" x2="61.30514" y2="426.20734"/>
	<line class="st3" x1="103.3793" y1="436.20731" x2="103.3793" y2="426.20734"/>
	<line class="st3" x1="82.342" y1="436.20731" x2="82.342" y2="396.53214"/>
	<line class="st3" x1="124.41638" y1="436.20731" x2="124.41638" y2="426.20734"/>
	<line class="st3" x1="145.45348" y1="436.20731" x2="145.45348" y2="395.47684"/>
	<line class="st3" x1="166.49055" y1="436.20731" x2="166.49055" y2="426.20734"/>
	<line class="st3" x1="187.52763" y1="436.20731" x2="187.52763" y2="426.20734"/>
	<line class="st3" x1="208.56471" y1="436.20731" x2="208.56471" y2="426.20734"/>
	<line class="st3" x1="229.60179" y1="436.20731" x2="229.60179" y2="426.20734"/>
	<line class="st3" x1="250.63889" y1="436.20731" x2="250.63889" y2="426.20734"/>
	<line class="st3" x1="271.67596" y1="436.20731" x2="271.67596" y2="426.20734"/>
	<line class="st3" x1="292.71304" y1="436.20731" x2="292.71304" y2="348.00601"/>
	<line class="st3" x1="313.75012" y1="436.20731" x2="313.75012" y2="426.20734"/>
	<line class="st3" x1="334.7872" y1="436.20731" x2="334.7872" y2="426.20734"/>
	<line class="st3" x1="355.82428" y1="436.20731" x2="355.82428" y2="426.20734"/>
	<line class="st3" x1="376.86136" y1="436.20731" x2="376.86136" y2="426.20734"/>
	<line class="st3" x1="397.89844" y1="436.20731" x2="397.89844" y2="426.20734"/>
	<line class="st3" x1="418.93552" y1="436.20731" x2="418.93552" y2="426.20734"/>
	<line class="st3" x1="439.97263" y1="436.20731" x2="439.97263" y2="246.62129"/>
	<line class="st3" x1="461.0097" y1="436.20731" x2="461.0097" y2="426.20734"/>
	<line class="st3" x1="482.04678" y1="436.20731" x2="482.04678" y2="257.49216"/>
	<line class="st3" x1="503.08386" y1="436.34561" x2="503.08386" y2="426.20734"/>
	<line class="st3" x1="524.12091" y1="436.20731" x2="524.12091" y2="426.20734"/>
	<line class="st3" x1="545.15802" y1="436.20731" x2="545.15802" y2="426.20734"/>
	<line class="st3" x1="566.19513" y1="436.20731" x2="566.19513" y2="426.20734"/>
	<line class="st3" x1="587.23218" y1="436.20731" x2="587.23218" y2="254.9532"/>
	<line class="st3" x1="608.26929" y1="436.20731" x2="608.26929" y2="426.20734"/>
	<line class="st3" x1="629.30634" y1="436.20731" x2="629.30634" y2="426.20734"/>
	<line class="st3" x1="650.34344" y1="436.20731" x2="650.34344" y2="426.20734"/>
	<line class="st3" x1="671.38049" y1="436.20731" x2="671.38049" y2="426.20734"/>
	<line class="st3" x1="692.4176" y1="436.20731" x2="692.4176" y2="426.20734"/>
	<line class="st3" x1="713.45465" y1="436.34561" x2="713.45465" y2="194.84601"/>
	<line class="st3" x1="734.49176" y1="436.20731" x2="734.49176" y2="426.20734"/>
	<line class="st3" x1="755.52881" y1="436.20731" x2="755.52881" y2="426.20734"/>
	<line class="st3" x1="776.56592" y1="436.20731" x2="776.56592" y2="426.20734"/>
	<line class="st3" x1="797.60303" y1="436.20731" x2="797.60303" y2="426.20734"/>
	<line class="st3" x1="818.64008" y1="436.20731" x2="818.64008" y2="113.32803"/>
	<line class="st3" x1="839.67719" y1="436.20731" x2="839.67719" y2="426.20734"/>
	<line class="st3" x1="860.71423" y1="436.20731" x2="860.71423" y2="426.20734"/>
	<line class="st3" x1="881.75134" y1="436.20731" x2="881.75134" y2="426.20734"/>
	<line class="st3" x1="902.78851" y1="436.34564" x2="902.78845" y2="426.20737"/>
</g>
<polyline class="st5" points="902.78833,56.14038 881.75128,71.30234 860.71417,81.16278 839.67712,101.7645 818.64001,113.32803 
	797.60297,131.42361 776.56586,147.33684 755.52881,160.52928 734.4917,174.78006 713.45465,194.84601 692.41754,209.57683 
	671.38049,204.29349 650.34338,212.04924 629.30634,230.28304 608.26923,242.36366 587.23218,254.9532 566.19507,262.74225 
	545.15802,257.73007 524.12091,254.6469 503.08386,252.36024 482.04678,258.31674 461.0097,255.16884 439.97263,246.62129 
	418.93555,264.42551 397.89847,279.63385 376.86139,288.55917 355.82431,304.16519 334.78723,320.40054 313.75015,335.85968 
	292.71307,348.00601 271.67599,356.22174 250.63892,365.39157 229.60184,374.56323 208.56476,384.20154 187.52768,389.62903 
	166.4906,391.83807 145.45352,395.47684 124.41643,393.06982 103.37935,394.31754 82.34227,396.53214 61.30519,402.9285 "/>
<polyline class="st6" points="902.78833,30.53688 881.75128,70.23215 860.71417,95.64666 839.67712,131.01666 818.64001,161.32814 
	797.60297,184.28731 776.56586,205.8587 755.52881,230.21449 734.4917,252.4084 713.45465,278.89554 692.41754,301.14731 
	671.38049,309.13586 650.34338,324.04779 629.30634,338.78903 608.26923,351.77411 587.23218,361.83289 566.19507,372.25378 
	545.15802,381.39435 524.12091,388.64774 503.08386,393.10495 482.04678,398.8941 461.0097,402.99908 439.97263,406.55969 
	418.93555,410.25449 397.89847,413.30255 376.86139,416.3566 355.82431,419.02042 334.78723,421.01349 313.75015,422.19711 
	292.71307,423.15085 271.67599,423.97272 250.63892,424.39349 229.60184,424.84961 208.56476,425.05881 187.52768,425.09726 
	166.4906,425.32623 145.45352,425.47736 124.41643,425.54874 103.37935,425.59711 82.34227,425.63022 61.30519,425.64111 "/>
<g>
	<circle class="st7" cx="902.78857" cy="30.53691" r="5"/>
</g>
<circle class="st4" cx="61.30519" cy="402.9285" r="5"/>
<g>
	<circle class="st7" cx="61.30519" cy="425.64111" r="5"/>
</g>
<g>
	<text transform="matrix(1 0 0 1 66.82444 458.01221)" class="st8 st9">1980</text>
</g>
<g>
	<text transform="matrix(1 0 0 1 33.07841 458.01221)" class="st8 st9">1979</text>
</g>
<g>
	<text transform="matrix(1 0 0 1 129.93579 458.01221)" class="st8 st9">1983</text>
</g>
<text transform="matrix(1 0 0 1 277.19562 458.01257)" class="st8 st9">1990</text>
<text transform="matrix(1 0 0 1 422.41138 458.01257)" class="st8 st9">1997</text>
<text transform="matrix(1 0 0 1 466.52963 458.01257)" class="st8 st9">1999</text>
<text transform="matrix(1 0 0 1 571.71405 458.01257)" class="st8 st9">2004</text>
<text transform="matrix(1 0 0 1 697.93683 458.01205)" class="st8 st9">2010</text>
<text transform="matrix(1 0 0 1 803.1225 458.01205)" class="st8 st9">2015</text>
<text transform="matrix(1 0 0 1 887.27087 458.01205)" class="st8 st9">2019</text>
<text transform="matrix(1 0 0 1 910.44519 35.72607)" class="st7 st10 st2">391.4</text>
<text transform="matrix(1 0 0 1 26.7236 430.79276)" class="st7 st10 st9">0.28</text>
<line class="st11" x1="28.37032" y1="230.12173" x2="56.77584" y2="230.12173"/>
<line class="st12" x1="152.74071" y1="230.1472" x2="181.14618" y2="230.1472"/>
<text transform="matrix(1 0 0 1 63.77195 234.99042)" class="st8 st2">Shenzhen</text>
<text transform="matrix(0.99999 0 0 1 188.06557 234.97772)" class="st8 st2">Hong Kong</text>
<g>
	<g>
		<line class="st13" x1="145.45346" y1="468.99649" x2="145.45346" y2="502.16498"/>
	</g>
</g>
<g>
	<g>
		<line class="st14" x1="292.71271" y1="470.24103" x2="292.71271" y2="502.26871"/>
	</g>
</g>
<g>
	<g>
		<line class="st14" x1="439.97263" y1="470.24103" x2="439.97263" y2="502.26871"/>
	</g>
</g>
<g>
	<g>
		<line class="st14" x1="482.04678" y1="470.24103" x2="482.04678" y2="502.26871"/>
	</g>
</g>
<g>
	<g>
		<line class="st14" x1="587.23212" y1="470.24103" x2="587.23212" y2="502.26871"/>
	</g>
</g>
<g>
	<g>
		<line class="st14" x1="713.45441" y1="470.24103" x2="713.45441" y2="502.26871"/>
	</g>
</g>
<g>
	<g>
		<line class="st14" x1="818.64008" y1="470.24103" x2="818.64008" y2="502.26871"/>
	</g>
</g>
<g>
	<rect x="9.93221" y="510.83209" class="st15" width="80.60959" height="78.93262"/>
	<text transform="matrix(1 0 0 0.99999 43.11017 522.08154)" class="st8 st2">Special </text>
	<text transform="matrix(1 0 0 0.99999 25.64191 539.08136)" class="st8 st2">economic </text>
	<text transform="matrix(1 0 0 0.99999 51.26202 556.08124)" class="st8 st2">zones </text>
	<text transform="matrix(1 0 0 0.99999 15.39532 573.08105)" class="st8 st2">established</text>
</g>
<g>
	<rect x="109.24639" y="510.83209" class="st15" width="116.39668" height="78.93262"/>
	<text transform="matrix(1 0 0 0.99999 109.24632 522.08154)" class="st8 st2">First joint-stock </text>
	<text transform="matrix(1 0 0 0.99999 109.24632 539.08136)" class="st8 st2">enterprise in </text>
	<text transform="matrix(1 0 0 0.99999 109.24632 556.08124)" class="st8 st2">Shenzhen </text>
	<text transform="matrix(1 0 0 0.99999 109.24632 573.08105)" class="st8 st2">established</text>
</g>
<g>
	<rect x="238.26743" y="510.83209" class="st15" width="116.3967" height="78.93262"/>
	<text transform="matrix(1 0 0 0.99999 238.26736 522.08154)" class="st8 st2">The Shenzhen </text>
	<text transform="matrix(1 0 0 0.99999 238.26736 539.08136)" class="st8 st2">Stock Exchange </text>
	<text transform="matrix(1 0 0 0.99999 238.26736 556.08124)" class="st8 st2">established</text>
</g>
<g>
	<rect x="362.58926" y="510.83209" class="st15" width="90.80557" height="78.93262"/>
	<text transform="matrix(1 0 0 0.99999 362.58917 522.08154)" class="st8 st2">Hong Kong&apos;s </text>
	<text transform="matrix(1 0 0 0.99999 362.58917 539.08136)" class="st8 st2">return to </text>
	<text transform="matrix(1 0 0 0.99999 362.58917 556.08124)" class="st8 st2">Chinese </text>
	<text transform="matrix(1 0 0 0.99999 362.58917 573.08105)" class="st8 st2">sovereignty</text>
</g>
<g>
	<rect x="463.84683" y="510.83209" class="st15" width="96.06558" height="78.93262"/>
	<text transform="matrix(1 0 0 0.99999 463.84723 522.08154)" class="st8 st2">The first China </text>
	<text transform="matrix(1 0 0 0.99999 463.84723 539.08136)" class="st8 st2">Hi-Tech Fair </text>
	<text transform="matrix(1 0 0 0.99999 463.84723 556.08124)" class="st8 st2">held in </text>
	<text transform="matrix(1 0 0 0.99999 463.84723 573.08105)" class="st8 st2">Shenzhen</text>
</g>
<g>
	<rect x="573.83704" y="510.83209" class="st15" width="98.88904" height="78.93262"/>
	<text transform="matrix(1 0 0 0.99999 573.83746 522.08154)" class="st8 st2">Shenzhen </text>
	<text transform="matrix(1 0 0 0.99999 573.83746 539.08136)" class="st8 st2">subway </text>
	<text transform="matrix(1 0 0 0.99999 573.83746 556.08124)" class="st8 st2">officially begins </text>
	<text transform="matrix(1 0 0 0.99999 573.83746 573.08105)" class="st8 st2">operating </text>
</g>
<g>
	<rect x="688.41266" y="510.83209" class="st15" width="106.51776" height="89.83392"/>
	<text transform="matrix(1 0 0 0.99999 688.4126 522.08154)" class="st8 st2">China becomes </text>
	<text transform="matrix(1 0 0 0.99999 688.4126 539.08136)" class="st8 st2">the world&apos;s </text>
	<text transform="matrix(1 0 0 0.99999 688.4126 556.08124)" class="st8 st2">second-biggest </text>
	<text transform="matrix(1 0 0 0.99999 688.4126 573.08105)" class="st8 st2">economy</text>
</g>
<g>
	<rect x="807.66998" y="510.83209" class="st15" width="145.11652" height="74.5517"/>
	<text transform="matrix(1 0 0 0.99999 807.66992 522.08154)" class="st8 st2">Shenzhen overtakes</text>
	<text transform="matrix(1 0 0 0.99999 807.66992 539.08234)" class="st8 st2">Hong Kong as </text>
	<text transform="matrix(1 0 0 0.99999 807.66992 556.08118)" class="st8 st2">China’s most</text>
	<text transform="matrix(1 0 0 0.99999 807.66992 573.08099)" class="st8 st2">competitive city*</text>
</g>
<text transform="matrix(1 0 0 1 910.44556 65.2619)" class="st4 st10 st2">366</text>
<text transform="matrix(1 0 0 1 25.53484 407.57013)" class="st4 st10 st9">22.5</text>
<g>
	<g>
		<line class="st13" x1="82.34222" y1="468.99649" x2="82.34222" y2="502.16498"/>
	</g>
</g>
<text transform="matrix(1 0 0 1 14.59358 612.75574)" class="st8 st9">*according to the Chinese Academy of Social Sciences</text>
</svg>
