<?xml version="1.0" encoding="utf-8"?>
<!-- Generator: Adobe Illustrator 19.2.1, SVG Export Plug-In . SVG Version: 6.00 Build 0)  -->
<svg version="1.1" id="Capa_1" xmlns="http://www.w3.org/2000/svg" xmlns:xlink="http://www.w3.org/1999/xlink" x="0px" y="0px"
	 viewBox="0 0 486.4 486.4" style="enable-background:new 0 0 486.4 486.4;" xml:space="preserve">
<style type="text/css">
	.st0{fill:#D1D1D1;}
</style>
<path class="st0" d="M352.3,276.3h103.9c0.8-7.2,1.1-14.6,1.1-22.1c0-35.3-9.5-68.4-26-97c17.1-45.5,16.5-84.1-6.4-107.2
	c-21.8-21.7-80.3-18.2-146.4,11.1c-4.9-0.4-9.8-0.6-14.8-0.6C173,60.6,96.9,123,75.9,207.1c28.5-36.4,58.4-62.9,98.4-82.1
	c-3.6,3.4-24.9,24.5-28.4,28.1C40.4,258.6,7.1,396.3,42.9,432.1c27.2,27.2,76.5,22.6,133.1-5.1c26.3,13.4,56.1,21,87.7,21
	c85,0,157.1-54.7,183.2-131H342.2c-14.4,26.6-42.6,44.7-74.9,44.7s-60.5-18.1-74.9-44.7c-6.4-12-10.1-25.8-10.1-40.4v-0.3
	L352.3,276.3L352.3,276.3z M182.4,225.2c2.4-42.8,38-76.9,81.4-76.9c43.4,0,78.9,34.1,81.3,76.9L182.4,225.2L182.4,225.2z M424,71.6
	c14.8,14.9,14.4,42.4,1.8,76.6c-21.6-33-53.1-59-90.2-73.8C375.2,57.4,407.5,55.1,424,71.6z M70.2,425.3
	c-18.8-18.8-13.2-58.4,11.1-106c15.1,42.4,44.5,78,82.5,100.9C121.8,439.2,87.4,442.5,70.2,425.3z"/>
</svg>
