<?xml version="1.0" encoding="utf-8"?>
<!-- Generator: Adobe Illustrator 24.3.0, SVG Export Plug-In . SVG Version: 6.00 Build 0)  -->
<svg version="1.1" id="Layer_1" xmlns="http://www.w3.org/2000/svg" xmlns:xlink="http://www.w3.org/1999/xlink" x="0px" y="0px"
	 viewBox="0 0 425 570" style="enable-background:new 0 0 425 570;" xml:space="preserve">
<style type="text/css">
    @import url('https://fonts.googleapis.com/css?family=Merriweather:100,300,400,500,600,700|Roboto:100,300,400,500,600,700');
	.st0{opacity:0.56;fill:#CECDCB;enable-background:new    ;}
	.st1{font-family:'Roboto';font-weight:500;}
	.st2{font-size:15px;}
	.st3{font-family:'Roboto';font-weight:100;}
	.st4{fill:#00BFE5;}
	.st5{font-size:14px;}
	.st6{fill-rule:evenodd;clip-rule:evenodd;fill:#FFFFFF;}
	.st7{fill:#FFFFFF;}
	.st8{font-family:'Roboto';font-weight:300;}
	.st9{font-size:12px;}
	.st10{font-family:'Merriweather';font-weight:600;}
	.st11{letter-spacing:1;}
	.st12{fill:#9C9C9C;}
</style>
<image style="overflow:visible;" width="1470" height="1040" xlink:href="../img/shenzhen-map-m.png"  transform="matrix(0.4998 0 0 0.4998 -108.55 -142.60089)">
</image>
<polygon class="st0" points="420.54999,150.69911 417.95001,154.49911 417.65002,155.49911 418.75,155.89911 418.04999,158.09912 
	419.34998,165.49911 418.84998,168.99911 418.25,170.09912 417.25,170.49911 415.54999,168.99911 415.54999,168.09912 
	413.75,167.39911 413.25,163.29912 412.25,162.69911 411.04999,162.49911 409.75,163.29912 408.65002,160.59912 
	405.15002,155.49911 405.04999,151.79912 408.04999,149.99911 410.15002,146.79912 411.15002,146.49911 412.95001,146.89911 
	416.04999,145.59912 416.65002,145.99911 417.65002,148.79912 "/>
<text transform="matrix(1 0 0 1 0.05 -14.00085)" class="st9" style="font-family:'ArialMT';"> </text>
<text transform="matrix(1 0 0 1 0.05 -14.00085)" class="st9" style="font-family:'ArialMT';"> </text>
<g>
	<text transform="matrix(1 0 0 1 353.41077 309.04346)" class="st1 st2">Area km²</text>
</g>
<g>
	<text transform="matrix(1 0 0 1 99.19348 309.04346)" class="st1 st2">Place</text>
</g>
<g>
	<text transform="matrix(1 0 0 1 386.47968 329.88266)" class="st3 st2">21.3</text>
</g>
<g>
	<text transform="matrix(1 0 0 1 18.3129 329.88266)" class="st3 st2">1</text>
</g>
<g>
	<text transform="matrix(1 0 0 1 99.19348 329.88266)" class="st3 st2">Fuyong North + Shajing South</text>
</g>
<g>
	<text transform="matrix(1 0 0 1 386.47968 350.72183)" class="st3 st2">20.3</text>
</g>
<g>
	<text transform="matrix(1 0 0 1 18.3129 350.72183)" class="st3 st2">2</text>
</g>
<g>
	<text transform="matrix(1 0 0 1 99.19348 350.72183)" class="st3 st2">Guangming</text>
</g>
<g>
	<text transform="matrix(1 0 0 1 394.79224 371.56116)" class="st3 st2">7.6</text>
</g>
<g>
	<text transform="matrix(1 0 0 1 18.3129 371.56116)" class="st3 st2">3</text>
</g>
<g>
	<text transform="matrix(1 0 0 1 99.19348 371.56116)" class="st3 st2">Shiyan</text>
</g>
<g>
	<text transform="matrix(1 0 0 1 394.79224 392.40036)" class="st3 st2">5.8</text>
</g>
<g>
	<text transform="matrix(1 0 0 1 18.3129 392.40036)" class="st3 st2">4</text>
</g>
<g>
	<text transform="matrix(1 0 0 1 99.19348 392.40036)" class="st3 st2">University Town</text>
</g>
<g>
	<text transform="matrix(1 0 0 1 386.47968 413.23965)" class="st3 st2">11.5</text>
</g>
<g>
	<text transform="matrix(1 0 0 1 18.3129 413.23965)" class="st3 st2">5</text>
</g>
<g>
	<text transform="matrix(1 0 0 1 99.19348 413.23965)" class="st3 st2">Shenzhen Bay</text>
</g>
<g>
	<text transform="matrix(1 0 0 1 394.79224 434.07886)" class="st3 st2">7.1</text>
</g>
<g>
	<text transform="matrix(1 0 0 1 18.3129 434.07886)" class="st3 st2">6</text>
</g>
<g>
	<text transform="matrix(1 0 0 1 99.19348 434.07886)" class="st3 st2">Guanlan</text>
</g>
<g>
	<text transform="matrix(1 0 0 1 394.79224 454.91806)" class="st3 st2">3.4</text>
</g>
<g>
	<text transform="matrix(1 0 0 1 18.3129 454.91806)" class="st3 st2">7</text>
</g>
<g>
	<text transform="matrix(1 0 0 1 99.19348 454.91806)" class="st3 st2">Longhua</text>
</g>
<g>
	<text transform="matrix(1 0 0 1 386.47968 475.75735)" class="st3 st2">16.1</text>
</g>
<g>
	<text transform="matrix(1 0 0 1 18.3129 475.75735)" class="st3 st2">8</text>
</g>
<g>
	<text transform="matrix(1 0 0 1 99.19348 475.75735)" class="st3 st2">Baolong</text>
</g>
<g>
	<text transform="matrix(1 0 0 1 386.47968 496.59656)" class="st3 st2">20.1</text>
</g>
<g>
	<text transform="matrix(1 0 0 1 18.3129 496.59653)" class="st3 st2">9</text>
</g>
<g>
	<text transform="matrix(1 0 0 1 99.19348 496.59656)" class="st3 st2">Biling</text>
</g>
<g>
	<text transform="matrix(1 0 0 1 386.47968 517.43573)" class="st3 st2">41.3</text>
</g>
<g>
	<text transform="matrix(1 0 0 1 9.99991 517.43573)" class="st3 st2">10</text>
</g>
<g>
	<text transform="matrix(1 0 0 1 99.19348 517.43573)" class="st3 st2">Pingshan</text>
</g>
<g>
	<text transform="matrix(1 0 0 1 386.47968 538.27502)" class="st3 st2">10.5</text>
</g>
<g>
	<text transform="matrix(1 0 0 1 18.3129 538.27502)" class="st3 st2">1</text>
</g>
<g>
	<text transform="matrix(1 0 0 1 99.19348 538.27502)" class="st3 st2">Kuichong</text>
</g>
<g>
	<text transform="matrix(1 0 0 1 9.99991 538.27502)" class="st3 st2">11</text>
</g>
<g>
	<text transform="matrix(1 0 0 1 406.68671 559.11426)" class="st3 st2">9</text>
</g>
<g>
	<text transform="matrix(1 0 0 1 9.99991 559.11426)" class="st3 st2">12</text>
</g>
<g>
	<text transform="matrix(1 0 0 1 99.19348 559.11426)" class="st3 st2">Dapeng</text>
</g>
<g>
	<g>
		<circle class="st4" cx="21.85" cy="93.59911" r="8.6"/>
	</g>
	<text transform="matrix(1 0 0 1 17.8404 97.69067)" class="st1 st5">1</text>
</g>
<g>
	<g>
		<circle class="st4" cx="76.65" cy="59.79912" r="8.6"/>
	</g>
	<text transform="matrix(1 0 0 1 72.6599 63.89355)" class="st1 st5">2</text>
</g>
<g>
	<g>
		<circle class="st4" cx="89.25" cy="105.89912" r="8.6"/>
	</g>
	<text transform="matrix(1 0 0 1 85.29649 110.00592)" class="st1 st5">3</text>
</g>
<g>
	<g>
		<circle class="st4" cx="140.95" cy="152.69911" r="8.60001"/>
	</g>
	<text transform="matrix(1 0 0 1 136.9512 156.78333)" class="st1 st5">4</text>
</g>
<g>
	<g>
		<circle class="st4" cx="86.15" cy="181.29912" r="8.6"/>
	</g>
	<text transform="matrix(1 0 0 1 82.1927 185.38184)" class="st1 st5">5</text>
</g>
<g>
	<g>
		<circle class="st4" cx="157.35001" cy="92.19911" r="8.6"/>
	</g>
	<text transform="matrix(1 0 0 1 153.35651 96.26086)" class="st1 st5">6</text>
</g>
<g>
	<g>
		<circle class="st4" cx="151.55" cy="116.99912" r="8.60001"/>
	</g>
	<text transform="matrix(1 0 0 1 147.5925 121.09064)" class="st1 st5">7</text>
</g>
<g>
	<g>
		<circle class="st4" cx="314.75" cy="78.59911" r="8.6"/>
	</g>
	<text transform="matrix(1 0 0 1 310.75928 82.73755)" class="st1 st5">8</text>
</g>
<g>
	<g>
		<circle class="st4" cx="291.95001" cy="117.39912" r="8.60001"/>
	</g>
	<text transform="matrix(1 0 0 1 287.9248 121.53406)" class="st1 st5">9</text>
</g>
<g>
	<g>
		<circle class="st4" cx="352.25" cy="100.99911" r="8.6"/>
	</g>
	<text transform="matrix(1 0 0 1 344.94733 105.54272)" class="st1 st5">10</text>
</g>
<g>
	<g>
		<circle class="st4" cx="367.75" cy="145.69911" r="8.60001"/>
	</g>
	<text transform="matrix(1 0 0 1 360.4967 150.19275)" class="st1 st5">11</text>
</g>
<g>
	<g>
		<circle class="st4" cx="402.15002" cy="162.39911" r="8.60001"/>
	</g>
	<text transform="matrix(1 0 0 1 394.84503 166.90533)" class="st1 st5">12</text>
</g>
<rect x="23.15" y="222.19911" class="st6" width="12.2" height="1.7"/>
<rect x="35.45" y="222.19911" class="st6" width="12.2" height="1.7"/>
<text transform="matrix(1 0 0 1 23.91351 219.44214)" class="st7 st8 st9">4km</text>
<text transform="matrix(1 0 0 1 184.35973 146.46875)" class="st10 st2 st11">Shenzhen</text>
<text transform="matrix(1 0 0 1 135.9073 251.55159)" class="st12 st10 st5 st11">Hong Kong</text>
</svg>
