<?xml version="1.0" encoding="utf-8"?>
<!-- Generator: Adobe Illustrator 24.3.0, SVG Export Plug-In . SVG Version: 6.00 Build 0)  -->
<svg version="1.1" id="Layer_1" xmlns="http://www.w3.org/2000/svg" xmlns:xlink="http://www.w3.org/1999/xlink" x="0px" y="0px"
	 viewBox="0 0 425 408" style="enable-background:new 0 0 425 408;" xml:space="preserve">
<style type="text/css">
    @import url('https://fonts.googleapis.com/css?family=Merriweather:100,300,400,500,600,700|Roboto:100,300,400,500,600,700');
	.st0{opacity:0.4;fill:#E7BEBA;enable-background:new    ;}
	.st1{opacity:0.4;fill:#75BDD2;enable-background:new    ;}
	.st2{fill:none;stroke:#999999;stroke-width:2;stroke-miterlimit:10;}
	.st3{fill:none;stroke:#000000;stroke-width:2;stroke-miterlimit:10;}
	.st4{font-family:'Roboto';font-weight:100;}
	.st5{font-size:15px;}
	.st6{fill:none;stroke:#CCCCCC;stroke-width:0.5;stroke-miterlimit:10;}
	.st7{fill:#DCEFE0;}
	.st8{fill:none;stroke:#000000;stroke-width:0.5;stroke-miterlimit:10;stroke-dasharray:4;}
	.st9{fill:#aaaaaa;}
	.st10{font-family:'Roboto';font-weight:300;font-style:italic;}
	.st11{font-size:14px;}
	.st12{fill:#aaaaaa;}
	.st13{font-family:'Roboto';font-weight:300;}
	.st14{font-family:'Roboto';font-weight:600;}
	.st15{fill:#999999;}
</style>
<polyline class="st0" points="403.51682,143.4019 394.92542,143.4019 394.92542,133.81902 386.33398,133.81902 386.33398,149.74673 
	377.74252,149.74673 377.74252,165.98074 369.15109,165.98074 369.15109,165.01808 360.55969,165.01808 360.55969,161.21118 
	351.96823,161.21118 351.96823,167.59976 343.3768,167.59976 343.3768,174.68848 334.7854,174.68848 334.7854,180.15816 
	326.19394,180.15816 326.19394,197.44235 317.60251,197.44235 317.60251,229.16649 309.01111,229.16649 309.01111,209.12558 
	300.41965,209.12558 300.41965,216.82689 291.82822,216.82689 291.82822,229.60406 283.23679,229.60406 283.23679,241.50609 
	274.64536,241.50609 274.64536,254.54581 266.05392,254.54581 266.05392,270.16724 257.46249,270.16724 257.46249,280.45023 
	248.87106,280.45023 248.87106,284.95724 240.27963,284.95724 240.27963,279.75009 231.68819,279.75009 231.68819,292.396 
	223.09676,292.396 223.09676,292.48352 214.50534,292.48352 214.50534,286.35748 205.91389,286.35748 205.91389,289.63928 
	197.32246,289.63928 197.32246,292.65854 188.73103,292.65854 188.73103,302.50397 180.1396,302.50397 180.1396,309.4614 
	171.54817,309.4614 171.54817,316.33133 162.95674,316.33133 162.95674,325.30161 154.3653,325.30161 154.3653,332.43405 
	145.77386,332.43405 145.77386,332.25903 154.3653,332.25903 154.3653,324.55771 162.95674,324.55771 162.95674,314.62479 
	171.54817,314.62479 171.54817,307.97366 180.1396,307.97366 180.1396,297.95319 188.73103,297.95319 188.73103,284.34464 
	197.32246,284.34464 197.32246,281.85046 205.91389,281.85046 205.91389,277.38721 214.50534,277.38721 214.50534,287.84521 
	223.09676,287.84521 223.09676,289.90182 231.68819,289.90182 231.68819,274.9368 240.27963,274.9368 240.27963,280.01266 
	248.87106,280.01266 248.87106,277.12463 257.46249,277.12463 257.46249,266.62286 266.05392,266.62286 266.05392,249.38243 
	274.64536,249.38243 274.64536,237.04282 283.23679,237.04282 283.23679,221.77148 291.82822,221.77148 291.82822,206.63141 
	300.41965,206.63141 300.41965,197.74864 309.01111,197.74864 309.01111,216.56435 317.60251,216.56435 317.60251,178.58289 
	326.19394,178.58289 326.19394,156.04781 334.7854,156.04781 334.7854,147.69012 343.3768,147.69012 343.3768,139.33246 
	351.96823,139.33246 351.96823,130.36218 360.55969,130.36218 360.55969,140.1201 369.15109,140.1201 369.15109,142.26421 
	377.74252,142.26421 377.74252,122.57335 386.33398,122.57335 386.33398,102.00735 394.92542,102.00735 394.92542,119.29155 
	403.51682,119.29155 "/>
<polyline class="st1" points="403.5166,262.51511 394.92523,262.51511 394.92523,260.84674 386.33386,260.84674 
	386.33386,261.68091 377.74249,261.68091 377.74249,264.71033 369.15109,264.71033 369.15109,253.07564 360.55972,253.07564 
	360.55972,244.11913 351.96835,244.11913 351.96835,234.76746 343.37698,234.76746 343.37698,249.82672 334.78558,249.82672 
	334.78558,261.19797 326.19421,261.19797 326.19421,279.33051 317.60284,279.33051 317.60284,297.85822 309.01144,297.85822 
	309.01144,290.08713 300.42007,290.08713 300.42007,295.00443 291.8287,295.00443 291.8287,309.22949 283.2373,309.22949 
	283.2373,324.42044 274.64594,324.42044 274.64594,334.82581 266.05457,334.82581 266.05457,341.32367 257.4632,341.32367 
	257.4632,348.52402 248.87181,348.52402 248.87181,352.51932 240.28043,352.51932 240.28043,353.79254 231.68906,353.79254 
	231.68906,356.60242 223.09767,356.60242 223.09767,357.3927 214.50627,357.3927 214.50627,357.74393 205.9149,357.74393 
	205.9149,359.67572 197.32353,359.67572 197.32353,359.98306 188.73215,359.98306 188.73215,360.94897 180.14076,360.94897 
	180.14076,362.74905 171.54939,362.74905 171.54939,363.71494 162.95801,363.71494 162.95801,364.63693 154.36664,364.63693 
	154.36664,365.38333 145.77524,365.38333 145.77524,368.01761 137.18387,368.01761 137.18387,368.19321 128.5925,368.19321 
	128.5925,368.36884 120.00111,368.36884 120.00111,368.67615 111.40973,368.67615 111.40973,368.72006 102.81835,368.72006 
	102.81835,368.85178 94.22697,368.85178 94.22696,368.93958 85.63559,368.93958 85.63559,368.98349 51.27006,368.98346 
	85.63555,368.98349 85.63555,368.67615 94.22693,368.67615 94.22693,368.63226 102.8183,368.63226 102.8183,368.67615 
	111.40968,368.67615 111.40968,368.50052 120.00105,368.50052 128.59244,368.50052 128.59244,368.28101 137.18382,368.28101 
	145.77519,368.28101 145.77519,365.69064 154.36658,365.69064 154.36658,364.76865 162.95795,364.76865 162.95795,363.89056 
	171.54933,363.89056 171.54933,362.83685 180.14072,362.83685 180.14072,361.65143 188.7321,361.65143 188.7321,360.99286 
	197.32347,360.99286 197.32347,361.16849 205.91486,361.16849 205.91486,360.466 214.50623,360.466 214.50623,360.68552 
	223.09761,360.68552 223.09761,359.23666 231.68898,359.23666 231.68898,356.07556 240.28036,356.07556 240.28036,355.32916 
	248.87173,355.32916 248.87173,351.11435 257.46313,351.11435 257.46313,345.09943 266.0545,345.09943 266.0545,338.51376 
	274.64587,338.51376 274.64587,333.28912 283.23727,333.28912 283.23727,324.50824 291.82864,324.50824 291.82864,316.73715 
	300.42001,316.73715 300.42001,316.2103 309.01138,316.2103 309.01138,321.47882 317.60278,321.47882 317.60278,306.37567 
	326.19415,306.37567 326.19415,294.96051 334.78552,294.96051 334.78552,283.15021 343.37689,283.15021 343.37689,267.21286 
	351.96829,267.21286 351.96829,279.68176 360.55969,279.68176 360.55969,290.6579 369.15106,290.6579 369.15106,298.34116 
	377.74243,298.34116 377.74243,294.43365 386.3338,294.43365 386.3338,277.83777 394.9252,277.83777 394.9252,285.74057 
	403.51657,285.74057 "/>
<line class="st2" x1="101.12893" y1="13.93981" x2="124.53413" y2="13.93981"/>
<line class="st3" x1="10" y1="13.96487" x2="33.40519" y2="13.96487"/>
<text transform="matrix(1 0 0 1.00001 131.52992 18.89203)" class="st4 st5">Imports</text>
<text transform="matrix(1 0 0 1.00001 41.24631 41.14569)" class="st4 st5">FDI (US$ billion)</text>
<text transform="matrix(1 0 0 1.00001 40.3989 18.85345)" class="st4 st5">Exports</text>
<g>
	<g>
		<line class="st6" x1="39.059" y1="324.77652" x2="351.9928" y2="324.77652"/>
		<line class="st6" x1="143.97275" y1="281.01907" x2="415" y2="281.01907"/>
		<line class="st6" x1="241.64999" y1="237.26163" x2="415" y2="237.26163"/>
		<line class="st6" x1="282.04483" y1="193.5042" x2="415" y2="193.50417"/>
		<line class="st6" x1="305.81168" y1="149.74675" x2="415" y2="149.74675"/>
		<line class="st6" x1="305.81168" y1="105.98932" x2="415" y2="105.98932"/>
	</g>
</g>
<g>
	<g>
		<polygon class="st7" points="102.81783,356.01932 94.22639,356.01932 94.22639,359.47617 85.63501,359.47617 85.63501,361.35773 
			77.04358,361.35773 77.04358,361.62027 68.4522,361.62027 68.4522,362.97678 59.86082,362.97678 59.86082,364.24573 
			51.26939,364.24573 51.26939,363.67688 59.86082,363.67688 59.86082,362.23288 68.4522,362.23288 68.4522,360.70139 
			77.04358,360.70139 77.04358,360.4826 85.63501,360.4826 85.63501,358.64478 94.22639,358.64478 94.22639,355.93182 
			102.81783,355.93182 		"/>
		<polyline class="st7" points="137.1834,340.70422 128.59201,340.70422 128.59201,340.39792 137.1834,340.39792 		"/>
	</g>
	<g>
		<polyline class="st2" points="403.51678,119.29154 394.92542,119.29154 394.92542,102.00735 386.33398,102.00735 
			386.33398,122.57335 377.74261,122.57335 377.74261,142.26421 369.15115,142.26421 369.15115,140.1201 360.55978,140.1201 
			360.55978,130.36218 351.96841,130.36218 351.96841,139.33246 343.37698,139.33246 343.37698,147.69012 334.78558,147.69012 
			334.78558,156.04779 326.19421,156.04779 326.19421,178.58289 317.60278,178.58289 317.60278,216.56435 309.01138,216.56435 
			309.01138,197.74864 300.41998,197.74864 300.41998,206.63141 291.82858,206.63141 291.82858,221.77148 283.23721,221.77148 
			283.23721,237.04282 274.64578,237.04282 274.64578,249.38243 266.05438,249.38243 266.05438,266.62286 257.46298,266.62286 
			257.46298,277.12463 248.8716,277.12463 248.8716,280.01263 240.28021,280.01263 240.28021,274.93677 231.68877,274.93677 
			231.68877,289.90182 223.0974,289.90182 223.0974,287.84521 214.50601,287.84521 214.50601,277.38721 205.91458,277.38721 
			205.91458,281.85046 197.3232,281.85046 197.3232,284.34464 188.73178,284.34464 188.73178,297.95319 180.1404,297.95319 
			180.1404,307.97366 171.54901,307.97366 171.54901,314.62479 162.95758,314.62479 162.95758,324.55771 154.3662,324.55771 
			154.3662,332.25903 145.77478,332.25903 145.77478,336.76605 137.1834,336.76605 137.1834,340.39792 128.59201,340.39792 
			128.59201,347.18033 120.00058,347.18033 120.00058,352.9563 111.4092,352.9563 111.4092,355.45047 102.81783,355.45047 
			102.81783,355.93182 94.22639,355.93182 94.22639,358.64478 85.63501,358.64478 85.63501,360.4826 77.04358,360.4826 
			77.04358,360.70139 68.4522,360.70139 68.4522,362.23288 59.86082,362.23288 59.86082,363.67688 51.26939,363.67688 		"/>
	</g>
	<polyline class="st3" points="403.51678,143.4019 394.92542,143.4019 394.92542,133.81902 386.33398,133.81902 
		386.33398,149.74673 377.74261,149.74673 377.74261,165.98074 369.15115,165.98074 369.15115,165.01808 360.55978,165.01808 
		360.55978,161.21117 351.96841,161.21117 351.96841,167.59976 343.37698,167.59976 343.37698,174.68848 334.78558,174.68848 
		334.78558,180.15814 326.19421,180.15814 326.19421,197.44235 317.60278,197.44235 317.60278,229.16649 309.01138,229.16649 
		309.01138,209.12558 300.41998,209.12558 300.41998,216.82689 291.82858,216.82689 291.82858,229.60406 283.23721,229.60406 
		283.23721,241.50609 274.64578,241.50609 274.64578,254.54581 266.05438,254.54581 266.05438,270.16724 257.46298,270.16724 
		257.46298,280.45023 248.8716,280.45023 248.8716,284.95724 240.28021,284.95724 240.28021,279.75009 231.68877,279.75009 
		231.68877,292.396 223.0974,292.396 223.0974,292.48352 214.50601,292.48352 214.50601,286.35748 205.91458,286.35748 
		205.91458,289.63928 197.3232,289.63928 197.3232,292.65854 188.73178,292.65854 188.73178,302.50397 180.1404,302.50397 
		180.1404,309.4614 171.54901,309.4614 171.54901,316.33133 162.95758,316.33133 162.95758,325.30161 154.3662,325.30161 
		154.3662,332.43405 145.77478,332.43405 145.77478,336.32846 137.1834,336.32846 137.1834,340.70422 128.59201,340.70422 
		128.59201,347.18033 120.00058,347.18033 120.00058,352.91254 111.4092,352.91254 111.4092,355.27545 102.81783,355.27545 
		102.81783,356.01932 94.22639,356.01932 94.22639,359.47617 85.63501,359.47617 85.63501,361.35773 77.04358,361.35773 
		77.04358,361.62027 68.4522,361.62027 68.4522,362.97678 59.86082,362.97678 59.86082,364.24573 51.26939,364.24573 	"/>
</g>
<g>
	<line class="st6" x1="55.56515" y1="376.53397" x2="55.56515" y2="368.53397"/>
	<line class="st6" x1="64.15658" y1="384.53394" x2="64.15658" y2="368.53397"/>
	<line class="st6" x1="72.74796" y1="376.53397" x2="72.74796" y2="368.53397"/>
	<line class="st6" x1="81.33939" y1="376.53397" x2="81.33939" y2="368.53397"/>
	<line class="st6" x1="89.93077" y1="376.53397" x2="89.93077" y2="368.53397"/>
	<line class="st6" x1="98.52215" y1="376.53397" x2="98.52215" y2="368.53397"/>
	<line class="st6" x1="107.11359" y1="376.53397" x2="107.11359" y2="368.53397"/>
	<line class="st6" x1="115.70496" y1="376.53397" x2="115.70496" y2="368.53397"/>
	<line class="st6" x1="124.29635" y1="376.53397" x2="124.29635" y2="368.53397"/>
	<line class="st6" x1="132.88777" y1="376.53397" x2="132.88777" y2="368.53397"/>
	<line class="st6" x1="141.47916" y1="376.53397" x2="141.47916" y2="368.53397"/>
	<line class="st6" x1="150.07054" y1="384.53394" x2="150.07054" y2="368.53397"/>
	<line class="st6" x1="158.66196" y1="376.53397" x2="158.66196" y2="368.53397"/>
	<line class="st6" x1="167.25334" y1="376.53397" x2="167.25334" y2="368.53397"/>
	<line class="st6" x1="175.84473" y1="376.53397" x2="175.84473" y2="368.53397"/>
	<line class="st6" x1="184.43616" y1="376.53397" x2="184.43616" y2="368.53397"/>
	<line class="st6" x1="193.02754" y1="376.53397" x2="193.02754" y2="368.53397"/>
	<line class="st6" x1="201.61891" y1="376.53397" x2="201.61891" y2="368.53397"/>
	<line class="st6" x1="210.21036" y1="376.53397" x2="210.21036" y2="368.53397"/>
	<line class="st6" x1="218.80173" y1="376.53397" x2="218.80173" y2="368.53397"/>
	<line class="st6" x1="227.39311" y1="376.53397" x2="227.39311" y2="368.53397"/>
	<line class="st6" x1="235.98453" y1="384.53394" x2="235.98453" y2="368.53397"/>
	<line class="st6" x1="244.57591" y1="376.53397" x2="244.57591" y2="368.53397"/>
	<line class="st6" x1="253.16728" y1="376.53397" x2="253.16728" y2="368.53397"/>
	<line class="st6" x1="261.75873" y1="376.53397" x2="261.75873" y2="368.53397"/>
	<line class="st6" x1="270.3501" y1="376.53397" x2="270.3501" y2="368.53397"/>
	<line class="st6" x1="278.9415" y1="376.53397" x2="278.9415" y2="368.53397"/>
	<line class="st6" x1="287.5329" y1="376.53397" x2="287.5329" y2="368.53397"/>
	<line class="st6" x1="296.1243" y1="376.53397" x2="296.1243" y2="368.53397"/>
	<line class="st6" x1="304.7157" y1="376.53397" x2="304.7157" y2="368.53397"/>
	<line class="st6" x1="313.3071" y1="376.53397" x2="313.3071" y2="368.53397"/>
	<line class="st6" x1="321.8985" y1="384.53394" x2="321.8985" y2="368.53397"/>
	<line class="st6" x1="330.48987" y1="376.53397" x2="330.48987" y2="368.53397"/>
	<line class="st6" x1="339.0813" y1="376.53397" x2="339.0813" y2="368.53397"/>
	<line class="st6" x1="347.6727" y1="376.53397" x2="347.6727" y2="368.53397"/>
	<line class="st6" x1="356.2641" y1="376.53397" x2="356.2641" y2="368.53397"/>
	<line class="st6" x1="364.8555" y1="376.53397" x2="364.8555" y2="368.53397"/>
	<line class="st6" x1="373.44687" y1="376.53397" x2="373.44687" y2="368.53397"/>
	<line class="st6" x1="382.0383" y1="376.53397" x2="382.0383" y2="368.53397"/>
	<line class="st6" x1="390.6297" y1="376.53397" x2="390.6297" y2="368.53397"/>
	<line class="st6" x1="399.2211" y1="384.53397" x2="399.22107" y2="368.534"/>
</g>
<g>
	<polyline class="st2" points="403.51669,285.56985 394.92529,285.56985 394.92529,277.69351 386.33389,277.69351 
		386.33389,294.2338 377.74249,294.2338 377.74249,298.12823 369.15109,298.12823 369.15109,290.47067 360.55969,290.47067 
		360.55969,279.53131 351.96829,279.53131 351.96829,267.10422 343.37692,267.10422 343.37692,282.98816 334.78549,282.98816 
		334.78549,294.75891 326.19409,294.75891 326.19409,306.13583 317.60272,306.13583 317.60272,321.18839 309.01132,321.18839 
		309.01132,315.9375 300.41992,315.9375 300.41992,316.46259 291.82849,316.46259 291.82849,324.20764 283.23712,324.20764 
		283.23712,332.95914 274.64572,332.95914 274.64572,338.16626 266.05432,338.16626 266.05432,344.72989 257.46295,344.72989 
		257.46295,350.72464 248.87152,350.72464 248.87152,354.92535 240.28012,354.92535 240.28012,355.66925 231.68872,355.66925 
		231.68872,358.81976 223.09735,358.81976 223.09735,360.26376 214.50595,360.26376 214.50595,360.04498 205.91455,360.04498 
		205.91455,360.74509 197.32315,360.74509 197.32315,360.57007 188.73175,360.57007 188.73175,361.22644 180.14035,361.22644 
		180.14035,362.40787 171.54895,362.40787 171.54895,363.45804 162.95755,363.45804 162.95755,364.33319 154.36615,364.33319 
		154.36615,365.25211 145.77475,365.25211 145.77475,367.8338 137.18335,367.8338 128.59196,367.8338 128.59196,368.05258 
		120.00056,368.05258 111.40916,368.05258 111.40916,368.22763 102.81776,368.22763 102.81776,368.18387 94.22636,368.18387 
		94.22636,368.22763 85.63497,368.22763 85.63497,368.53391 51.2694,368.53391 	"/>
	<polyline class="st3" points="403.51675,262.42215 394.92535,262.42215 394.92535,260.7594 386.33395,260.7594 
		386.33395,261.59076 377.74258,261.59076 377.74258,264.61005 369.15115,264.61005 369.15115,253.01431 360.55975,253.01431 
		360.55975,244.0878 351.96835,244.0878 351.96835,234.76746 343.37698,234.76746 343.37698,249.77626 334.78558,249.77626 
		334.78558,261.10944 326.19415,261.10944 326.19415,279.18124 317.60278,279.18124 317.60278,297.64691 309.01138,297.64691 
		309.01138,289.90182 300.41998,289.90182 300.41998,294.80264 291.82858,294.80264 291.82858,308.98007 283.23718,308.98007 
		283.23718,324.12015 274.64578,324.12015 274.64578,334.49063 266.05438,334.49063 266.05438,340.96674 257.46298,340.96674 
		257.46298,348.14297 248.8716,348.14297 248.8716,352.12491 240.28017,352.12491 240.28017,353.39386 231.68877,353.39386 
		231.68877,356.19434 223.0974,356.19434 223.0974,356.98196 214.506,356.98196 214.506,357.33203 205.91458,357.33203 
		205.91458,359.25735 197.3232,359.25735 197.3232,359.56366 188.7318,359.56366 188.7318,360.52631 180.1404,360.52631 
		180.1404,362.32037 171.549,362.32037 171.549,363.28305 162.9576,363.28305 162.9576,364.20197 154.3662,364.20197 
		154.3662,364.9458 145.7748,364.9458 145.7748,367.57129 137.18341,367.57129 137.18341,367.74631 128.592,367.74631 
		128.592,367.92133 120.00061,367.92133 120.00061,368.22763 111.40922,368.22763 111.40922,368.27139 102.81781,368.27139 
		102.81781,368.40265 94.2264,368.40265 94.2264,368.49017 85.63503,368.49017 85.63503,368.53394 51.2694,368.53397 	"/>
</g>
<line class="st8" x1="399.22107" y1="313.30515" x2="399.22107" y2="262.74649"/>
<line class="st8" x1="399.22107" y1="143.4019" x2="399.22107" y2="92.70504"/>
<text transform="matrix(1 0 0 1 27.15839 373.98383)" class="st9 st10 st5">0</text>
<text transform="matrix(1 0 0 1 10.66399 329.77707)" class="st9 st10 st5">100</text>
<text transform="matrix(1 0 0 1 116.0565 286.01978)" class="st9 st10 st5">200</text>
<text transform="matrix(1 0 0 1 83.61168 314.58932)" class="st10 st5">Hong Kong</text>
<text transform="matrix(1 0 0 1 180.63864 345.41684)" class="st10 st5">Shenzhen</text>
<text transform="matrix(1 0 0 1 212.90903 242.26154)" class="st9 st10 st5">300</text>
<text transform="matrix(1 0 0 1 252.10159 198.50427)" class="st9 st10 st5">400</text>
<text transform="matrix(1 0 0 1 275.49564 154.74704)" class="st9 st10 st5">500</text>
<text transform="matrix(1 0 0 1 275.97391 110.98981)" class="st9 st10 st5">600</text>
<text transform="matrix(1 0 0 1 48.63884 399.32501)" class="st4 st11">1980</text>
<text transform="matrix(1 0 0 1 134.55281 399.32501)" class="st4 st11">1990</text>
<text transform="matrix(1 0 0 1 220.46704 399.32501)" class="st4 st11">2000</text>
<text transform="matrix(1 0 0 1 306.38052 399.32501)" class="st4 st11">2010</text>
<text transform="matrix(1 0 0 1 383.70383 399.32489)" class="st4 st11">2019</text>
<text transform="matrix(1 0 0 1 64.026 138.03558)" class="st12 st4 st11">1979</text>
<text transform="matrix(1 0 0 1 383.96503 38.11908)" class="st12 st4 st11">2019</text>
<text transform="matrix(1 0 0 1 361.76157 325.69403)" class="st13 st11">Shenzhen</text>
<text transform="matrix(1 0 0 1 370.92172 342.49384)" class="st14 st11">242.5b</text>
<text transform="matrix(1 0 0 1 370.92172 359.29364)" class="st15 st14 st11">189.6b</text>
<text transform="matrix(1 0 0 1 345.64941 54.3725)" class="st13 st11">Hong Kong</text>
<text transform="matrix(1 0 0 1 370.92188 71.1723)" class="st15 st14 st11">569.6b</text>
<text transform="matrix(1 0 0 1 370.92188 87.97211)" class="st14 st11">514.5b</text>
<text transform="matrix(1 0 0 1 64.02545 212.33521)" class="st13 st11">Shenzhen</text>
<text transform="matrix(1 0 0 1 64.02545 227.33521)" class="st14 st11">0.0093</text>
<text transform="matrix(1 0 0 1 64.02545 242.33521)" class="st15 st14 st11">0.0074</text>
<text transform="matrix(1 0 0 1 64.02582 154.49261)" class="st13 st11">Hong Kong</text>
<text transform="matrix(1 0 0 1 64.02582 169.49261)" class="st14 st11">9.8b</text>
<text transform="matrix(1 0 0 1 64.02582 184.49261)" class="st15 st14 st11">11.1b</text>
<text transform="matrix(1 0 0 1 9.99976 184.55817)" class="st4 st11">Imports</text>
<text transform="matrix(1 0 0 1 11.36011 168.90509)" class="st4 st11">Exports</text>
<text transform="matrix(1 0 0 1 317.34018 358.08698)" class="st4 st11">Imports</text>
<text transform="matrix(1 0 0 1 318.70053 342.4339)" class="st4 st11">Exports</text>
<text transform="matrix(1 0 0 1 312.25244 70.84375)" class="st4 st11">Imports</text>
<text transform="matrix(1 0 0 1 314.97314 88.0166)" class="st4 st11">Exports</text>
<g>
	<path class="st8" d="M93.26797,248.82297v31.68085c0,4.21167-3.4459,7.65756-7.65755,7.65756H58.92694
		c-4.21165,0-7.65755,3.44589-7.65755,7.65756v72.71497"/>
</g>
<text transform="matrix(1 0 0 1 292.42911 19.18384)" class="st4 st5">Deficit</text>
<rect x="277.4595" y="8.53238" class="st0" width="10.65106" height="10.65112"/>
<text transform="matrix(1 0 0 1 217.50626 19.18384)" class="st4 st5">Surplus</text>
<rect x="202.53671" y="8.53238" class="st1" width="10.65106" height="10.65112"/>
</svg>
