<?xml version="1.0" encoding="utf-8"?>
<!-- Generator: Adobe Illustrator 24.3.0, SVG Export Plug-In . SVG Version: 6.00 Build 0)  -->
<svg version="1.1" id="Layer_1" xmlns="http://www.w3.org/2000/svg" xmlns:xlink="http://www.w3.org/1999/xlink" x="0px" y="0px"
	 viewBox="0 0 520 475" style="enable-background:new 0 0 520 475;" xml:space="preserve">
<style type="text/css">
    @import url('https://fonts.googleapis.com/css?family=Merriweather:100,300,400,500,600,700|Roboto:100,300,400,500,600,700');
	.st0{opacity:0.4;fill:#E7BEBA;enable-background:new    ;}
	.st1{opacity:0.4;fill:#75BDD2;enable-background:new    ;}
	.st2{fill:none;stroke:#999999;stroke-width:2;stroke-miterlimit:10;}
	.st3{fill:none;stroke:#000000;stroke-width:2;stroke-miterlimit:10;}
	.st4{font-family:'Roboto';font-weight:100;}
	.st5{font-size:15px;}
	.st6{fill:#aaaaaa;}
	.st7{font-family:'Roboto';font-weight:300;font-style:italic;}
	.st8{fill:none;stroke:#CCCCCC;stroke-width:0.5;stroke-miterlimit:10;}
	.st9{fill:#DCEFE0;}
	.st10{font-size:14px;}
	.st11{fill:#aaaaaa;}
	.st12{font-family:'Roboto';font-weight:300;}
	.st13{font-family:'Roboto';font-weight:600;}
	.st14{fill:#999999;}
	.st15{fill:none;stroke:#000000;stroke-width:0.5;stroke-miterlimit:10;stroke-dasharray:4;}
</style>
<polyline class="st0" points="505.00412,141.90901 493.78458,141.90901 493.78458,129.39473 482.56503,129.39473 
	482.56503,150.19473 471.34546,150.19473 471.34546,171.39473 460.12592,171.39473 460.12592,170.13759 448.90637,170.13759 
	448.90637,165.16617 437.6868,165.16617 437.6868,173.50902 426.46725,173.50902 426.46725,182.76616 415.24771,182.76616 
	415.24771,189.90903 404.02814,189.90903 404.02814,212.48045 392.80859,212.48045 392.80859,253.90903 381.58905,253.90903 
	381.58905,227.73759 370.36948,227.73759 370.36948,237.79474 359.14993,237.79474 359.14993,254.48045 347.93036,254.48045 
	347.93036,270.02332 336.71082,270.02332 336.71082,287.05188 325.49127,287.05188 325.49127,307.4519 314.2717,307.4519 
	314.2717,320.88046 303.05215,320.88046 303.05215,326.76617 291.83261,326.76617 291.83261,319.96619 280.61304,319.96619 
	280.61304,336.48047 269.39349,336.48047 269.39349,336.59476 258.17395,336.59476 258.17395,328.59476 246.95438,328.59476 
	246.95438,332.88046 235.73483,332.88046 235.73483,336.82333 224.51527,336.82333 224.51527,349.68048 213.29572,349.68048 
	213.29572,358.76617 202.07617,358.76617 202.07617,367.73761 190.85661,367.73761 190.85661,379.4519 179.63705,379.4519 
	179.63705,388.76617 168.4175,388.76617 168.4175,388.53763 179.63705,388.53763 179.63705,378.48047 190.85661,378.48047 
	190.85661,365.50903 202.07617,365.50903 202.07617,356.82333 213.29572,356.82333 213.29572,343.73761 224.51527,343.73761 
	224.51527,325.96619 235.73483,325.96619 235.73483,322.70905 246.95438,322.70905 246.95438,316.88046 258.17395,316.88046 
	258.17395,330.5376 269.39349,330.5376 269.39349,333.22333 280.61304,333.22333 280.61304,313.68048 291.83261,313.68048 
	291.83261,320.30905 303.05215,320.30905 303.05215,316.5376 314.2717,316.5376 314.2717,302.82333 325.49127,302.82333 
	325.49127,280.30902 336.71082,280.30902 336.71082,264.19473 347.93036,264.19473 347.93036,244.25189 359.14993,244.25189 
	359.14993,224.48045 370.36948,224.48045 370.36948,212.88045 381.58905,212.88045 381.58905,237.45189 392.80859,237.45189 
	392.80859,187.85188 404.02814,187.85188 404.02814,158.42331 415.24771,158.42331 415.24771,147.50902 426.46725,147.50902 
	426.46725,136.59473 437.6868,136.59473 437.6868,124.88044 448.90637,124.88044 448.90637,137.62331 460.12592,137.62331 
	460.12592,140.42331 471.34546,140.42331 471.34546,114.70901 482.56503,114.70901 482.56503,87.85187 493.78458,87.85187 
	493.78458,110.4233 505.00412,110.4233 "/>
<polyline class="st1" points="505.00385,297.45898 493.78436,297.45898 493.78436,295.28027 482.56488,295.28027 
	482.56488,296.36963 471.3454,296.36963 471.3454,300.32574 460.12592,300.32574 460.12592,285.13199 448.90643,285.13199 
	448.90643,273.43567 437.68695,273.43567 437.68695,261.22333 426.46747,261.22333 426.46747,280.88922 415.24799,280.88922 
	415.24799,295.73895 404.0285,295.73895 404.0285,319.41824 392.80902,319.41824 392.80902,343.61359 381.58951,343.61359 
	381.58951,333.4653 370.37003,333.4653 370.37003,339.88681 359.15054,339.88681 359.15054,358.46332 347.93106,358.46332 
	347.93106,378.30118 336.71158,378.30118 336.71158,391.88956 325.4921,391.88956 325.4921,400.37512 314.27261,400.37512 
	314.27261,409.77805 303.05313,409.77805 303.05313,414.99551 291.83365,414.99551 291.83365,416.65823 280.61417,416.65823 
	280.61417,420.32767 269.39468,420.32767 269.39468,421.35968 258.17517,421.35968 258.17517,421.81836 246.9557,421.81836 
	246.9557,424.34109 235.73622,424.34109 235.73622,424.74243 224.51672,424.74243 224.51672,426.00381 213.29724,426.00381 
	213.29724,428.35455 202.07776,428.35455 202.07776,429.61591 190.85828,429.61591 190.85828,430.81995 179.63879,430.81995 
	179.63879,431.79465 168.4193,431.79465 168.4193,435.23474 157.19981,435.23474 157.19981,435.46408 145.98033,435.46408 
	145.98033,435.69342 134.76085,435.69342 134.76085,436.09476 123.54136,436.09476 123.54136,436.1521 112.32188,436.1521 
	112.32188,436.3241 101.10239,436.3241 101.10237,436.43875 89.8829,436.43875 89.8829,436.49609 45.00494,436.49606 
	89.88284,436.49609 89.88284,436.09473 101.10233,436.09473 101.10233,436.03741 112.32181,436.03741 112.32181,436.09473 
	123.54129,436.09473 123.54129,435.86539 134.76077,435.86539 145.98026,435.86539 145.98026,435.57874 157.19975,435.57874 
	168.41924,435.57874 168.41924,432.19595 179.63872,432.19595 179.63872,430.99194 190.8582,430.99194 190.8582,429.84525 
	202.07768,429.84525 202.07768,428.46921 213.29718,428.46921 213.29718,426.92114 224.51666,426.92114 224.51666,426.06113 
	235.73615,426.06113 235.73615,426.29047 246.95563,426.29047 246.95563,425.37311 258.17511,425.37311 258.17511,425.65979 
	269.39459,425.65979 269.39459,423.76773 280.61407,423.76773 280.61407,419.63962 291.83356,419.63962 291.83356,418.66492 
	303.05304,418.66492 303.05304,413.1608 314.27255,413.1608 314.27255,405.30591 325.49203,405.30591 325.49203,396.70566 
	336.71152,396.70566 336.71152,389.88281 347.931,389.88281 347.931,378.41583 359.15048,378.41583 359.15048,368.26758 
	370.36996,368.26758 370.36996,367.57956 381.58945,367.57956 381.58945,374.45975 392.80893,374.45975 392.80893,354.73654 
	404.02841,354.73654 404.02841,339.82947 415.24789,339.82947 415.24789,324.40637 426.46738,324.40637 426.46738,303.59381 
	437.68689,303.59381 437.68689,319.87692 448.90637,319.87692 448.90637,334.21066 460.12585,334.21066 460.12585,344.24426 
	471.34534,344.24426 471.34534,339.14145 482.56482,339.14145 482.56482,317.46887 493.7843,317.46887 493.7843,327.78915 
	505.00378,327.78915 "/>
<line class="st2" x1="106.51054" y1="12.93975" x2="129.91574" y2="12.93975"/>
<line class="st3" x1="15.38161" y1="12.96481" x2="38.7868" y2="12.96481"/>
<text transform="matrix(1 0 0 1.00001 136.91153 17.89197)" class="st4 st5">Imports</text>
<text transform="matrix(1 0 0 1.00001 46.62791 40.14563)" class="st4 st5">FDI (US$ billion)</text>
<text transform="matrix(1 0 0 1.00001 45.7805 17.85339)" class="st4 st5">Exports</text>
<g>
	<g>
		<text transform="matrix(1 0 0 1 16.62558 440.9097)" class="st6 st7 st5">0</text>
		<text transform="matrix(1 0 0 1 -0.0004 383.76688)" class="st6 st7 st5">100</text>
		<text transform="matrix(1 0 0 1 137.0065 326.62347)" class="st6 st7 st5">200</text>
		<text transform="matrix(1 0 0 1 62.80951 398.34824)" class="st7 st5">Hong Kong</text>
		<text transform="matrix(1 0 0 1 230.67258 409.22571)" class="st7 st5">Shenzhen</text>
		<text transform="matrix(1 0 0 1 264.56326 269.48108)" class="st6 st7 st5">300</text>
		<text transform="matrix(1 0 0 1 317.31488 212.33771)" class="st6 st7 st5">400</text>
		<text transform="matrix(1 0 0 1 348.35202 155.19531)" class="st6 st7 st5">500</text>
		<text transform="matrix(1 0 0 1 348.35205 98.05212)" class="st6 st7 st5">600</text>
	</g>
</g>
<g>
	<g>
		<line class="st8" x1="29.05851" y1="378.7662" x2="520" y2="378.7662"/>
		<line class="st8" x1="166.06541" y1="321.62335" x2="520" y2="321.62335"/>
		<line class="st8" x1="293.62216" y1="264.48047" x2="520" y2="264.48047"/>
		<line class="st8" x1="346.37378" y1="207.33762" x2="447.46625" y2="207.33762"/>
		<line class="st8" x1="377.41095" y1="150.19476" x2="520" y2="150.19476"/>
		<line class="st8" x1="377.41095" y1="93.05191" x2="520" y2="93.05191"/>
	</g>
</g>
<g>
	<g>
		<polygon class="st9" points="112.32118,419.56619 101.10163,419.56619 101.10163,424.08047 89.88214,424.08047 
			89.88214,426.53763 78.66259,426.53763 78.66259,426.88046 67.44311,426.88046 67.44311,428.65192 56.22362,428.65192 
			56.22362,430.30905 45.00407,430.30905 45.00407,429.56619 56.22362,429.56619 56.22362,427.68048 67.44311,427.68048 
			67.44311,425.68048 78.66259,425.68048 78.66259,425.39478 89.88214,425.39478 89.88214,422.99475 101.10163,422.99475 
			101.10163,419.4519 112.32118,419.4519 		"/>
		<polyline class="st9" points="157.19919,399.56619 145.97971,399.56619 145.97971,399.1662 157.19919,399.1662 		"/>
	</g>
	<g>
		<polyline class="st2" points="505.00406,110.42329 493.78458,110.42329 493.78458,87.85187 482.56503,87.85187 
			482.56503,114.70901 471.34555,114.70901 471.34555,140.42329 460.12598,140.42329 460.12598,137.62331 448.90649,137.62331 
			448.90649,124.88044 437.68701,124.88044 437.68701,136.59473 426.46747,136.59473 426.46747,147.50902 415.24799,147.50902 
			415.24799,158.42329 404.0285,158.42329 404.0285,187.85188 392.80893,187.85188 392.80893,237.45189 381.58945,237.45189 
			381.58945,212.88045 370.3699,212.88045 370.3699,224.48045 359.15042,224.48045 359.15042,244.25188 347.93094,244.25188 
			347.93094,264.19473 336.71136,264.19473 336.71136,280.30902 325.49188,280.30902 325.49188,302.8233 314.27234,302.8233 
			314.27234,316.5376 303.05286,316.5376 303.05286,320.30902 291.83337,320.30902 291.83337,313.68045 280.6138,313.68045 
			280.6138,333.22333 269.39432,333.22333 269.39432,330.5376 258.17484,330.5376 258.17484,316.88046 246.95528,316.88046 
			246.95528,322.70905 235.73579,322.70905 235.73579,325.96619 224.51625,325.96619 224.51625,343.73761 213.29675,343.73761 
			213.29675,356.82333 202.07727,356.82333 202.07727,365.50903 190.85771,365.50903 190.85771,378.48047 179.63823,378.48047 
			179.63823,388.53763 168.41869,388.53763 168.41869,394.42334 157.19919,394.42334 157.19919,399.1662 145.97971,399.1662 
			145.97971,408.02335 134.76015,408.02335 134.76015,415.56619 123.54067,415.56619 123.54067,418.82333 112.32118,418.82333 
			112.32118,419.4519 101.10163,419.4519 101.10163,422.99475 89.88214,422.99475 89.88214,425.39478 78.66259,425.39478 
			78.66259,425.68048 67.44311,425.68048 67.44311,427.68048 56.22362,427.68048 56.22362,429.56619 45.00407,429.56619 		"/>
	</g>
	<polyline class="st3" points="505.00406,141.90901 493.78458,141.90901 493.78458,129.39473 482.56503,129.39473 
		482.56503,150.19473 471.34555,150.19473 471.34555,171.39473 460.12598,171.39473 460.12598,170.13759 448.90649,170.13759 
		448.90649,165.16615 437.68701,165.16615 437.68701,173.50902 426.46747,173.50902 426.46747,182.76616 415.24799,182.76616 
		415.24799,189.90901 404.0285,189.90901 404.0285,212.48045 392.80893,212.48045 392.80893,253.90903 381.58945,253.90903 
		381.58945,227.73759 370.3699,227.73759 370.3699,237.79474 359.15042,237.79474 359.15042,254.48045 347.93094,254.48045 
		347.93094,270.02332 336.71136,270.02332 336.71136,287.05188 325.49188,287.05188 325.49188,307.4519 314.27234,307.4519 
		314.27234,320.88046 303.05286,320.88046 303.05286,326.76617 291.83337,326.76617 291.83337,319.96619 280.6138,319.96619 
		280.6138,336.48047 269.39432,336.48047 269.39432,336.59476 258.17484,336.59476 258.17484,328.59476 246.95528,328.59476 
		246.95528,332.88046 235.73579,332.88046 235.73579,336.82333 224.51625,336.82333 224.51625,349.68048 213.29675,349.68048 
		213.29675,358.76617 202.07727,358.76617 202.07727,367.73761 190.85771,367.73761 190.85771,379.4519 179.63823,379.4519 
		179.63823,388.76617 168.41869,388.76617 168.41869,393.8519 157.19919,393.8519 157.19919,399.56619 145.97971,399.56619 
		145.97971,408.02335 134.76015,408.02335 134.76015,415.50903 123.54067,415.50903 123.54067,418.59476 112.32118,418.59476 
		112.32118,419.56619 101.10163,419.56619 101.10163,424.08047 89.88214,424.08047 89.88214,426.53763 78.66259,426.53763 
		78.66259,426.88046 67.44311,426.88046 67.44311,428.65192 56.22362,428.65192 56.22362,430.30905 45.00407,430.30905 	"/>
</g>
<g>
	<text transform="matrix(1 0 0 1 45.6907 467.4223)" class="st4 st10">1980</text>
	<text transform="matrix(1 0 0 1 157.88641 467.4223)" class="st4 st10">1990</text>
	<text transform="matrix(1 0 0 1 270.08112 467.4223)" class="st4 st10">2000</text>
	<text transform="matrix(1 0 0 1 382.27588 467.4223)" class="st4 st10">2010</text>
	<text transform="matrix(1 0 0 1 483.18781 467.4223)" class="st4 st10">2019</text>
</g>
<g>
	<line class="st8" x1="50.6139" y1="443.90906" x2="50.6139" y2="435.90906"/>
	<line class="st8" x1="61.83345" y1="451.90903" x2="61.83345" y2="435.90906"/>
	<line class="st8" x1="73.05294" y1="443.90906" x2="73.05294" y2="435.90906"/>
	<line class="st8" x1="84.27249" y1="443.90906" x2="84.27249" y2="435.90906"/>
	<line class="st8" x1="95.49198" y1="443.90906" x2="95.49198" y2="435.90906"/>
	<line class="st8" x1="106.71146" y1="443.90906" x2="106.71146" y2="435.90906"/>
	<line class="st8" x1="117.93102" y1="443.90906" x2="117.93102" y2="435.90906"/>
	<line class="st8" x1="129.1505" y1="443.90906" x2="129.1505" y2="435.90906"/>
	<line class="st8" x1="140.37" y1="443.90906" x2="140.37" y2="435.90906"/>
	<line class="st8" x1="151.58954" y1="443.90906" x2="151.58954" y2="435.90906"/>
	<line class="st8" x1="162.80904" y1="443.90906" x2="162.80904" y2="435.90906"/>
	<line class="st8" x1="174.02852" y1="451.90903" x2="174.02852" y2="435.90906"/>
	<line class="st8" x1="185.24806" y1="443.90906" x2="185.24806" y2="435.90906"/>
	<line class="st8" x1="196.46756" y1="443.90906" x2="196.46756" y2="435.90906"/>
	<line class="st8" x1="207.68704" y1="443.90906" x2="207.68704" y2="435.90906"/>
	<line class="st8" x1="218.90659" y1="443.90906" x2="218.90659" y2="435.90906"/>
	<line class="st8" x1="230.12608" y1="443.90906" x2="230.12608" y2="435.90906"/>
	<line class="st8" x1="241.34557" y1="443.90906" x2="241.34557" y2="435.90906"/>
	<line class="st8" x1="252.56512" y1="443.90906" x2="252.56512" y2="435.90906"/>
	<line class="st8" x1="263.78461" y1="443.90906" x2="263.78461" y2="435.90906"/>
	<line class="st8" x1="275.00409" y1="443.90906" x2="275.00409" y2="435.90906"/>
	<line class="st8" x1="286.22363" y1="451.90903" x2="286.22363" y2="435.90906"/>
	<line class="st8" x1="297.44312" y1="443.90906" x2="297.44312" y2="435.90906"/>
	<line class="st8" x1="308.6626" y1="443.90906" x2="308.6626" y2="435.90906"/>
	<line class="st8" x1="319.88217" y1="443.90906" x2="319.88217" y2="435.90906"/>
	<line class="st8" x1="331.10165" y1="443.90906" x2="331.10165" y2="435.90906"/>
	<line class="st8" x1="342.32114" y1="443.90906" x2="342.32114" y2="435.90906"/>
	<line class="st8" x1="353.54068" y1="443.90906" x2="353.54068" y2="435.90906"/>
	<line class="st8" x1="364.76016" y1="443.90906" x2="364.76016" y2="435.90906"/>
	<line class="st8" x1="375.97968" y1="443.90906" x2="375.97968" y2="435.90906"/>
	<line class="st8" x1="387.19922" y1="443.90906" x2="387.19922" y2="435.90906"/>
	<line class="st8" x1="398.4187" y1="451.90903" x2="398.4187" y2="435.90906"/>
	<line class="st8" x1="409.63818" y1="443.90906" x2="409.63818" y2="435.90906"/>
	<line class="st8" x1="420.85773" y1="443.90906" x2="420.85773" y2="435.90906"/>
	<line class="st8" x1="432.07724" y1="443.90906" x2="432.07724" y2="435.90906"/>
	<line class="st8" x1="443.29678" y1="443.90906" x2="443.29678" y2="435.90906"/>
	<line class="st8" x1="454.51627" y1="443.90906" x2="454.51627" y2="435.90906"/>
	<line class="st8" x1="465.73575" y1="443.90906" x2="465.73575" y2="435.90906"/>
	<line class="st8" x1="476.95529" y1="443.90906" x2="476.95529" y2="435.90906"/>
	<line class="st8" x1="488.1748" y1="443.90906" x2="488.1748" y2="435.90906"/>
	<line class="st8" x1="499.39435" y1="451.90906" x2="499.39429" y2="435.90909"/>
</g>
<text transform="matrix(1 0 0 1 94.45419 168.03424)" class="st11 st4 st10">1979</text>
<text transform="matrix(1 0 0 1 472.93085 17.12756)" class="st11 st4 st10">2019</text>
<g>
	<polyline class="st2" points="505.00397,327.56619 493.78445,327.56619 493.78445,317.28049 482.56491,317.28049 
		482.56491,338.88046 471.34543,338.88046 471.34543,343.96619 460.12592,343.96619 460.12592,333.96619 448.9064,333.96619 
		448.9064,319.68048 437.68689,319.68048 437.68689,303.4519 426.46741,303.4519 426.46741,324.19476 415.24786,324.19476 
		415.24786,339.56619 404.02835,339.56619 404.02835,354.42331 392.80887,354.42331 392.80887,374.08044 381.58936,374.08044 
		381.58936,367.22333 370.36984,367.22333 370.36984,367.90903 359.1503,367.90903 359.1503,378.02332 347.93082,378.02332 
		347.93082,389.45187 336.7113,389.45187 336.7113,396.25186 325.49179,396.25186 325.49179,404.8233 314.27231,404.8233 
		314.27231,412.65186 303.05276,412.65186 303.05276,418.13757 291.83325,418.13757 291.83325,419.10901 280.61374,419.10901 
		280.61374,423.2233 269.39426,423.2233 269.39426,425.10901 258.17474,425.10901 258.17474,424.8233 246.95523,424.8233 
		246.95523,425.73758 235.73572,425.73758 235.73572,425.509 224.5162,425.509 224.5162,426.36615 213.29669,426.36615 
		213.29669,427.909 202.07719,427.909 202.07719,429.28043 190.85767,429.28043 190.85767,430.42328 179.63817,430.42328 
		179.63817,431.62329 168.41864,431.62329 168.41864,434.99472 157.19914,434.99472 145.97964,434.99472 145.97964,435.28043 
		134.76012,435.28043 123.54062,435.28043 123.54062,435.509 112.3211,435.509 112.3211,435.45187 101.10159,435.45187 
		101.10159,435.509 89.88209,435.509 89.88209,435.909 45.00408,435.909 	"/>
	<polyline class="st3" points="505.00403,297.33762 493.78452,297.33762 493.78452,295.1662 482.565,295.1662 482.565,296.25189 
		471.34552,296.25189 471.34552,300.19476 460.12598,300.19476 460.12598,285.05191 448.90646,285.05191 448.90646,273.39478 
		437.68695,273.39478 437.68695,261.22333 426.46747,261.22333 426.46747,280.82333 415.24796,280.82333 415.24796,295.62332 
		404.02841,295.62332 404.02841,319.22333 392.80893,319.22333 392.80893,343.33762 381.58942,343.33762 381.58942,333.22333 
		370.3699,333.22333 370.3699,339.62332 359.15039,339.62332 359.15039,358.1376 347.93088,358.1376 347.93088,377.90903 
		336.71136,377.90903 336.71136,391.45187 325.49185,391.45187 325.49185,399.90903 314.27237,399.90903 314.27237,409.28046 
		303.05286,409.28046 303.05286,414.48047 291.83331,414.48047 291.83331,416.1376 280.6138,416.1376 280.6138,419.79474 
		269.39432,419.79474 269.39432,420.8233 258.1748,420.8233 258.1748,421.28046 246.95528,421.28046 246.95528,423.79474 
		235.73578,423.79474 235.73578,424.19473 224.51628,424.19473 224.51628,425.45187 213.29675,425.45187 213.29675,427.79474 
		202.07726,427.79474 202.07726,429.05188 190.85774,429.05188 190.85774,430.25189 179.63823,430.25189 179.63823,431.2233 
		168.41872,431.2233 168.41872,434.65189 157.19922,434.65189 157.19922,434.88046 145.97969,434.88046 145.97969,435.10901 
		134.76019,435.10901 134.76019,435.50903 123.54069,435.50903 123.54069,435.56616 112.32117,435.56616 112.32117,435.73758 
		101.10165,435.73758 101.10164,435.85187 89.88216,435.85187 89.88216,435.90903 45.00408,435.90906 	"/>
</g>
<text transform="matrix(1 0 0 1 455.17047 213.28784)" class="st12 st10">Shenzhen</text>
<text transform="matrix(1 0 0 1 464.33063 230.08765)" class="st13 st10">242.5b</text>
<text transform="matrix(1 0 0 1 464.33063 246.88745)" class="st14 st13 st10">189.6b</text>
<text transform="matrix(1 0 0 1 434.79999 33.38098)" class="st12 st10">Hong Kong</text>
<text transform="matrix(1 0 0 1 460.07245 50.18079)" class="st14 st13 st10">569.6b</text>
<text transform="matrix(1 0 0 1 460.07245 66.98059)" class="st13 st10">514.5b</text>
<text transform="matrix(1 0 0 1 94.45367 242.33386)" class="st12 st10">Shenzhen</text>
<text transform="matrix(1 0 0 1 94.45367 257.33386)" class="st13 st10">0.0093</text>
<text transform="matrix(1 0 0 1 94.45367 272.33386)" class="st14 st13 st10">0.0074</text>
<text transform="matrix(1 0 0 1 94.45404 184.49127)" class="st12 st10">Hong Kong</text>
<text transform="matrix(1 0 0 1 94.45404 199.49127)" class="st13 st10">9.8b</text>
<text transform="matrix(1 0 0 1 94.45404 214.49127)" class="st14 st13 st10">11.1b</text>
<line class="st15" x1="499.39429" y1="328.93207" x2="499.39429" y2="251.72902"/>
<line class="st15" x1="499.39429" y1="141.90901" x2="499.39429" y2="75.70397"/>
<text transform="matrix(1 0 0 1 40.42797 214.55682)" class="st4 st10">Imports</text>
<text transform="matrix(1 0 0 1 41.78831 198.90375)" class="st4 st10">Exports</text>
<text transform="matrix(1 0 0 1 410.74908 245.68079)" class="st4 st10">Imports</text>
<text transform="matrix(1 0 0 1 412.10944 230.02771)" class="st4 st10">Exports</text>
<text transform="matrix(1 0 0 1 405.35431 49.85223)" class="st4 st10">Imports</text>
<text transform="matrix(1 0 0 1 406.71466 67.02509)" class="st4 st10">Exports</text>
<g>
	<path class="st15" d="M99.85002,279.57843v41.37204c0,5.5-4.5,10-10,10H55.00407c-5.5,0-10,4.5-10,10V435.909"/>
</g>
<text transform="matrix(1 0 0 1 297.81073 18.18378)" class="st4 st5">Deficit</text>
<rect x="282.84113" y="7.53232" class="st0" width="10.65106" height="10.65112"/>
<text transform="matrix(1 0 0 1 222.88788 18.18378)" class="st4 st5">Surplus</text>
<rect x="207.91832" y="7.53232" class="st1" width="10.65106" height="10.65112"/>
</svg>
